<?xml version="1.0" encoding="UTF-8" standalone="no"?>
<!-- Created with Inkscape (http://www.inkscape.org/) -->

<svg
   xmlns:dc="http://purl.org/dc/elements/1.1/"
   xmlns:cc="http://creativecommons.org/ns#"
   xmlns:rdf="http://www.w3.org/1999/02/22-rdf-syntax-ns#"
   xmlns:svg="http://www.w3.org/2000/svg"
   xmlns="http://www.w3.org/2000/svg"
   xmlns:xlink="http://www.w3.org/1999/xlink"
   xmlns:sodipodi="http://sodipodi.sourceforge.net/DTD/sodipodi-0.dtd"
   xmlns:inkscape="http://www.inkscape.org/namespaces/inkscape"
   width="210mm"
   height="297mm"
   viewBox="0 0 744.09448819 1052.3622047"
   id="svg3657"
   version="1.1"
   inkscape:version="0.91 r13725"
   sodipodi:docname="asimov.svg">
  <defs
     id="defs3659">
    <linearGradient
       inkscape:collect="always"
       id="linearGradient4164">
      <stop
         style="stop-color:#ffffff;stop-opacity:0"
         offset="0"
         id="stop4166" />
      <stop
         id="stop4186"
         offset="0.62374234"
         style="stop-color:#000000;stop-opacity:0.49803922" />
      <stop
         style="stop-color:#000000;stop-opacity:1"
         offset="1"
         id="stop4168" />
    </linearGradient>
    <linearGradient
       id="linearGradient4546"
       inkscape:collect="always">
      <stop
         id="stop4602"
         offset="0"
         style="stop-color:#000000;stop-opacity:1;" />
      <stop
         id="stop4604"
         offset="1"
         style="stop-color:#000000;stop-opacity:0;" />
    </linearGradient>
    <linearGradient
       inkscape:collect="always"
       xlink:href="#linearGradient4546"
       id="linearGradient4554"
       x1="37.144932"
       y1="572.09241"
       x2="795.05713"
       y2="345.88303"
       gradientUnits="userSpaceOnUse" />
    <filter
       inkscape:collect="always"
       style="color-interpolation-filters:sRGB"
       id="filter4697"
       x="-0.0066521839"
       width="1.0133044"
       y="-0.005464279"
       height="1.0109286">
      <feGaussianBlur
         inkscape:collect="always"
         stdDeviation="1.6663591"
         id="feGaussianBlur4699" />
    </filter>
    <linearGradient
       inkscape:collect="always"
       xlink:href="#linearGradient4546"
       id="linearGradient4205"
       gradientUnits="userSpaceOnUse"
       gradientTransform="matrix(1.0278746,0,0,4.0795456,-42.494709,-2244.0569)"
       x1="1519.3989"
       y1="721.96948"
       x2="1517.3594"
       y2="548.53137" />
    <linearGradient
       inkscape:collect="always"
       xlink:href="#linearGradient4546"
       id="linearGradient4209"
       gradientUnits="userSpaceOnUse"
       gradientTransform="matrix(1.0278746,0,0,2.1363638,-42.494709,-833.21289)"
       x1="1519.3989"
       y1="721.96948"
       x2="1517.3594"
       y2="548.53137" />
    <radialGradient
       inkscape:collect="always"
       xlink:href="#linearGradient4164"
       id="radialGradient4182"
       cx="2908.4851"
       cy="-106.99211"
       fx="2908.4851"
       fy="-106.99211"
       r="249.1627"
       gradientTransform="matrix(1.00665,0.04109715,-0.0366544,0.6524821,-73.016676,-424.31139)"
       gradientUnits="userSpaceOnUse" />
  </defs>
  <sodipodi:namedview
     id="base"
     pagecolor="#ffffff"
     bordercolor="#666666"
     borderopacity="1.0"
     inkscape:pageopacity="0.0"
     inkscape:pageshadow="2"
     inkscape:zoom="0.49032548"
     inkscape:cx="2583.525"
     inkscape:cy="562.09456"
     inkscape:document-units="px"
     inkscape:current-layer="layer1"
     showgrid="false"
     showguides="true"
     inkscape:window-width="1280"
     inkscape:window-height="724"
     inkscape:window-x="0"
     inkscape:window-y="24"
     inkscape:window-maximized="1" />
  <metadata
     id="metadata3662">
    <rdf:RDF>
      <cc:Work
         rdf:about="">
        <dc:format>image/svg+xml</dc:format>
        <dc:type
           rdf:resource="http://purl.org/dc/dcmitype/StillImage" />
        <dc:title />
      </cc:Work>
    </rdf:RDF>
  </metadata>
  <g
     inkscape:label="Capa 1"
     inkscape:groupmode="layer"
     id="layer1">
    <path
       sodipodi:nodetypes="csssssssssssssssssssssssssssssssssssssssacc"
       inkscape:connector-curvature="0"
       id="path3358"
       d="m 3067.89,826.80938 c -2.4249,-10.44324 -8.5832,-29.94191 -10.0202,-40.56616 -1.3918,-10.29021 -1.4226,-20.74861 -1.1729,-31.1294 0.2738,-11.38478 1.2747,-22.76136 2.7408,-34.05456 1.3484,-10.38745 3.0698,-20.76267 5.6915,-30.90398 4.6409,-17.95133 10.1525,-35.68081 16.0653,-53.25454 4.6705,-13.88144 9.5385,-27.74776 15.6645,-41.05117 7.7386,-16.80563 17.0357,-32.85126 25.8554,-49.11554 7.3016,-13.46459 13.3093,-30.23393 18.0779,-44.78969 5.9663,-18.21145 7.9837,-40.68183 9.3128,-59.79959 1.2148,-17.47374 2.8385,-27.62068 -0.3408,-44.8457 -3.1068,-16.83248 -7.2357,-32.61082 -13.9696,-48.34737 -6.7103,-15.68133 -14.56,-30.90386 -23.2225,-45.59706 -8.2173,-13.93786 -16.7474,-27.87254 -27.3154,-40.12418 -11.8733,-13.7648 -25.0435,-26.61172 -39.6192,-37.47401 -15.1839,-11.31552 -31.8496,-20.75017 -49.0724,-28.62187 -15.8031,-7.22278 -32.5967,-12.28422 -49.4732,-16.41831 -18.3231,-4.48845 -36.981,-8.25957 -55.8129,-9.37278 -17.7169,-1.0473 -35.5299,0.91351 -53.1627,2.931 -17.4287,1.99415 -34.95,4.33464 -51.8376,9.08284 -15.9132,4.47426 -31.4084,10.73739 -46.0364,18.43597 -15.9214,8.3792 -31.1478,18.27588 -45.161,29.55994 -13.2493,10.66893 -25.8276,22.48609 -36.2086,35.96224 -9.9428,12.90746 -17.8265,27.47243 -24.2054,42.46485 -6.873,16.15361 -10.787,50.43715 -10.827,53.59377 -0.1727,13.65087 1.4084,27.43314 -0.4858,40.95308 -1.3834,9.87393 -10.539,18.56384 -9.2378,28.44897 1.648,12.51909 18.0543,21.03211 17.4113,33.6428 -0.7476,14.66158 -13.3549,26.18701 -21.0979,38.65966 -7.3141,11.78185 -16.4136,22.3737 -23.9984,33.98315 -8.4785,12.97735 -19.1992,25.04899 -24.1635,39.73412 -1.5034,4.44768 2.6368,9.83619 6.5095,12.49019 7.7816,5.3327 20.4088,2.83722 26.4405,10.09043 5.4322,6.53227 4.0406,16.87878 2.9986,25.31043 -1.0857,8.78516 -10.7399,16.19171 -9.2051,24.90965 0.9883,5.6133 14.3349,2.50127 15.0269,8.15874 0.699,5.71476 -11.9767,6.10791 -12.5815,11.83336 -1.7844,16.89228 6.1684,33.62045 5.9856,50.60553 -0.075,6.92306 -8.4746,12.94267 -6.7415,19.64584 1.5981,6.18066 8.7479,10.38842 14.9245,12.00268 14.8014,3.86887 32.7944,-4.30965 45.734,3.85219 26.4506,16.68411 44.1223,70.58817 47.3768,80.97773 87.6303,54.38574 190.8742,83.05508 369.1534,-11.86325 z"
       style="display:inline;opacity:1;fill:#000000;fill-opacity:1;fill-rule:evenodd;stroke:none;stroke-width:10.28912354;stroke-linecap:round;stroke-linejoin:round;stroke-miterlimit:4;stroke-dasharray:none;stroke-opacity:1"
       inkscape:export-xdpi="600"
       inkscape:export-ydpi="600" />
    <image
       sodipodi:absref="/home/laptop_casa/TESIS/TESIS/68747470733a2f2f7261772e6769746875622e636f6d2f63346673686172702f446f6a6f2d4672616374616c2d466f726573742f6d61737465722f4173736574732f6b69646e65792d747265652e6a7067.jpeg"
       xlink:href="68747470733a2f2f7261772e6769746875622e636f6d2f63346673686172702f446f6a6f2d4672616374616c2d466f726573742f6d61737465722f4173736574732f6b69646e65792d747265652e6a7067.jpeg"
       y="-1606.9595"
       x="-2606.6643"
       id="image3356"
       preserveAspectRatio="none"
       height="418.65216"
       width="505.96878"
       transform="matrix(-0.81263216,-0.58277695,-0.70218198,0.71199752,0,0)" />
    <path
       style="opacity:1;fill:url(#radialGradient4182);fill-opacity:1;fill-rule:nonzero;stroke:none;stroke-width:2.83500004;stroke-linecap:round;stroke-linejoin:round;stroke-miterlimit:4;stroke-dasharray:none;stroke-dashoffset:0;stroke-opacity:1"
       id="path4162"
       transform="matrix(0.96726931,0.253752,-0.3330399,0.94291273,0,0)"
       sodipodi:type="arc"
       sodipodi:cx="2858.7312"
       sodipodi:cy="-374.5914"
       sodipodi:rx="247.46307"
       sodipodi:ry="178.17964"
       sodipodi:start="0"
       sodipodi:end="6.2829309"
       d="m 3106.1943,-374.5914 a 247.46307,178.17964 0 0 1 -247.4474,178.17964 247.46307,178.17964 0 0 1 -247.4788,-178.15698 247.46307,178.17964 0 0 1 247.4159,-178.2023 247.46307,178.17964 0 0 1 247.5103,178.13431 l -247.4631,0.0453 z"
       inkscape:export-xdpi="600"
       inkscape:export-ydpi="600" />
    <rect
       style="opacity:1;fill:#ffffff;fill-opacity:1;fill-rule:nonzero;stroke:none;stroke-width:3.54330707;stroke-linecap:butt;stroke-linejoin:round;stroke-miterlimit:4;stroke-dasharray:none;stroke-dashoffset:0;stroke-opacity:1"
       id="rect4170"
       width="870.8501"
       height="825.98193"
       x="1064.599"
       y="-50.986542" />
    <image
       sodipodi:absref="/home/laptop_casa/TESIS/TESIS/68747470733a2f2f7261772e6769746875622e636f6d2f63346673686172702f446f6a6f2d4672616374616c2d466f726573742f6d61737465722f4173736574732f6b69646e65792d747265652e6a7067.jpeg"
       xlink:href="68747470733a2f2f7261772e6769746875622e636f6d2f63346673686172702f446f6a6f2d4672616374616c2d466f726573742f6d61737465722f4173736574732f6b69646e65792d747265652e6a7067.jpeg"
       y="-960.75879"
       x="-1515.7377"
       id="image3357"
       preserveAspectRatio="none"
       height="402.03482"
       width="485.2699"
       transform="matrix(-0.81053509,-0.58569008,-0.6994824,0.71464982,0,0)" />
    <path
       style="opacity:1;fill:#000000;fill-opacity:1;fill-rule:nonzero;stroke:none;stroke-width:3.54330707;stroke-linecap:butt;stroke-linejoin:round;stroke-miterlimit:4;stroke-dasharray:none;stroke-dashoffset:0;stroke-opacity:1"
       d="M 1214.2617 -9.0351562 L 1214.2617 729.32812 L 1834.373 729.32812 L 1834.373 -9.0351562 L 1214.2617 -9.0351562 z M 1551.5762 -2.3027344 C 1554.903 -2.2984176 1558.2289 -2.2080878 1561.5508 -2.0117188 C 1580.3827 -0.89850832 1599.0402 2.8728797 1617.3633 7.3613281 C 1634.2398 11.495418 1651.0329 16.558467 1666.8359 23.78125 C 1684.0588 31.652948 1700.7243 41.086822 1715.9082 52.402344 C 1730.484 63.264632 1743.6541 76.112154 1755.5273 89.876953 C 1766.0954 102.1286 1774.6265 116.06214 1782.8438 130 C 1791.5063 144.6932 1799.3562 159.91633 1806.0664 175.59766 C 1812.8003 191.33421 1816.9283 207.11283 1820.0352 223.94531 C 1823.2144 241.17033 1821.5918 251.31727 1820.377 268.79102 C 1819.0478 287.90878 1817.0288 310.3784 1811.0625 328.58984 C 1806.2939 343.1456 1800.2879 359.91431 1792.9863 373.37891 C 1784.1666 389.64318 1774.8695 405.69046 1767.1309 422.49609 C 1761.0049 435.7995 1756.1354 449.66544 1751.4648 463.54688 C 1745.5521 481.12061 1740.0412 498.84946 1735.4004 516.80078 C 1732.7787 526.9421 1731.0574 537.31763 1729.709 547.70508 C 1728.2429 558.99828 1727.2426 570.37498 1726.9688 581.75977 C 1726.7191 592.14055 1726.7489 602.59846 1728.1406 612.88867 C 1729.5776 623.51293 1735.7352 643.01183 1738.1602 653.45508 C 1559.8809 748.3734 1456.6381 719.7041 1369.0078 665.31836 C 1365.7533 654.9288 1348.0815 601.02395 1321.6309 584.33984 C 1308.6913 576.17801 1290.6979 584.35716 1275.8965 580.48828 C 1269.7199 578.87402 1262.5708 574.66699 1260.9727 568.48633 C 1259.2396 561.78316 1267.6383 555.76291 1267.7129 548.83984 C 1267.8956 531.85477 1259.9441 515.12666 1261.7285 498.23438 C 1262.3333 492.50893 1275.0096 492.11516 1274.3105 486.40039 C 1273.6185 480.74293 1260.2714 483.85549 1259.2832 478.24219 C 1257.7484 469.52425 1267.4026 462.1172 1268.4883 453.33203 C 1269.5303 444.90038 1270.9224 434.55375 1265.4902 428.02148 C 1259.4585 420.76828 1246.8304 423.26435 1239.0488 417.93164 C 1235.1761 415.27765 1231.0356 409.88908 1232.5391 405.44141 C 1237.5033 390.75627 1248.2246 378.68438 1256.7031 365.70703 C 1264.288 354.09758 1273.387 343.50646 1280.7012 331.72461 C 1288.4442 319.25196 1301.0512 307.72603 1301.7988 293.06445 C 1302.4418 280.45376 1286.0366 271.94096 1284.3887 259.42188 C 1283.0874 249.53674 1292.2416 240.84659 1293.625 230.97266 C 1295.5192 217.45272 1293.9386 203.67041 1294.1113 190.01953 C 1294.1513 186.86291 1298.0645 152.57939 1304.9375 136.42578 C 1311.3164 121.43337 1319.2017 106.86841 1329.1445 93.960938 C 1339.5255 80.484788 1352.1022 68.666973 1365.3516 57.998047 C 1379.3648 46.713983 1394.5923 36.81865 1410.5137 28.439453 C 1425.1417 20.740873 1440.6357 14.478171 1456.5488 10.003906 C 1473.4365 5.2557069 1490.958 2.9140628 1508.3867 0.91992188 C 1522.7134 -0.71929607 1537.1598 -2.3214402 1551.5762 -2.3027344 z "
       id="rect3363"
       inkscape:export-xdpi="200.06236"
       inkscape:export-ydpi="200.06236" />
    <image
       sodipodi:absref="/home/laptop_casa/TESIS/TESIS/68747470733a2f2f7261772e6769746875622e636f6d2f63346673686172702f446f6a6f2d4672616374616c2d466f726573742f6d61737465722f4173736574732f6b69646e65792d747265652e6a7067.jpeg"
       xlink:href="68747470733a2f2f7261772e6769746875622e636f6d2f63346673686172702f446f6a6f2d4672616374616c2d466f726573742f6d61737465722f4173736574732f6b69646e65792d747265652e6a7067.jpeg"
       transform="matrix(-0.81053509,-0.58569008,-0.6994824,0.71464982,0,0)"
       width="485.2699"
       height="402.03482"
       preserveAspectRatio="none"
       id="image3679"
       x="-707.58496"
       y="-252.77786" />
    <path
       style="display:inline;opacity:0.93800001;fill:url(#linearGradient4554);fill-opacity:1;fill-rule:evenodd;stroke:none;stroke-width:10.28912354;stroke-linecap:round;stroke-linejoin:round;stroke-miterlimit:4;stroke-dasharray:none;stroke-opacity:1;filter:url(#filter4697)"
       d="m 604.64339,764.49273 c -2.82045,-10.5606 -9.74827,-30.22381 -11.56809,-41.00192 -1.76253,-10.43923 -2.14394,-21.09538 -2.23686,-31.68183 -0.1019,-11.61034 0.53734,-23.23665 1.65336,-34.79356 1.02645,-10.63001 2.43344,-21.26003 4.76564,-31.68183 4.12837,-18.44782 9.15151,-36.69872 14.58861,-54.80433 4.29479,-14.30157 8.79134,-28.59435 14.58861,-42.3556 7.32338,-17.38401 16.26023,-34.04572 24.70338,-50.91426 6.98978,-13.96484 12.55056,-31.25395 16.92276,-46.24594 5.4703,-18.75724 6.77417,-41.72223 7.48883,-61.24784 0.65322,-17.84652 1.96819,-28.24066 -1.84787,-45.68669 -3.72911,-17.04846 -8.46451,-32.98854 -15.85296,-48.79887 -7.36252,-15.75485 -15.87082,-31.00406 -25.18968,-45.68667 -8.83981,-13.92782 -17.99836,-27.84192 -29.17722,-39.97281 -12.55952,-13.62913 -26.40992,-26.27954 -41.6262,-36.86056 -15.8511,-11.02252 -33.14926,-20.07883 -50.96287,-27.52384 -16.34513,-6.83127 -33.62732,-11.42697 -50.96292,-15.07492 -18.82151,-3.96064 -37.96023,-7.17911 -57.18735,-7.68333 -18.08867,-0.47437 -36.1747,2.11976 -54.07512,4.76563 -17.69327,2.61524 -35.46925,5.58651 -52.519,10.99005 -16.0659,5.09179 -31.64602,11.99246 -46.29451,20.32685 -15.94362,9.07122 -31.12821,19.66551 -45.03019,31.63296 -13.1442,11.31506 -25.56612,23.77772 -35.69348,37.85738 -9.69992,13.48551 -17.24605,28.59112 -23.24453,44.08195 -6.46309,16.69063 -9.30435,51.75677 -9.23945,54.97473 0.28079,13.91612 2.3531,27.90744 0.87532,41.74774 -1.07929,10.1079 -10.11815,19.26934 -8.4614,29.29882 2.09818,12.7019 19.10119,20.82775 18.86794,33.69965 -0.27122,14.96527 -12.73244,27.13163 -20.20524,40.10044 -7.05892,12.25054 -15.97693,23.34819 -23.31746,35.43211 -8.205449,13.50772 -18.725979,26.16754 -23.293169,41.29791 -1.3832,4.58252 3.01603,9.93492 7.05117,12.50977 8.10796,5.17368 20.891649,2.20824 27.280719,9.39748 5.754,6.47466 4.68217,17.06439 3.90244,25.69117 -0.81237,8.98848 -10.40221,16.85885 -8.54647,25.69113 1.19484,5.68693 14.69101,2.06915 15.5855,7.81099 0.90353,5.8 -11.99992,6.62477 -12.42466,12.47928 -1.25309,17.27307 7.41063,34.05308 7.79275,51.36711 0.15565,7.05715 -8.20265,13.47226 -6.21232,20.24484 1.83531,6.24466 9.2618,10.29316 15.60983,11.73142 15.21218,3.44713 33.27355,-5.48892 46.73221,2.39507 27.51164,16.11614 47.32287,70.45345 50.98688,80.93158 91.11579,52.4872 197.28137,78.24674 375.77307,-24.44126 z"
       id="path4156"
       inkscape:connector-curvature="0"
       sodipodi:nodetypes="csssssssssssssssssssssssssssssssssssssssacc"
       transform="matrix(0.98029023,0.03219039,-0.03219039,0.98029023,19.787961,-82.801928)" />
    <text
       xml:space="preserve"
       style="font-style:normal;font-weight:normal;font-size:112.5px;line-height:125%;font-family:Sans;letter-spacing:0px;word-spacing:0px;fill:#000000;fill-opacity:1;stroke:none;stroke-width:1px;stroke-linecap:butt;stroke-linejoin:miter;stroke-opacity:1"
       x="381.77481"
       y="801.43103"
       id="text4648"
       sodipodi:linespacing="125%"><tspan
         sodipodi:role="line"
         id="tspan4650"
         x="381.77481"
         y="801.43103"
         style="font-style:normal;font-variant:normal;font-weight:500;font-stretch:normal;font-size:17.5px;font-family:'CMU Serif';-inkscape-font-specification:'CMU Serif Medium';text-align:center;text-anchor:middle">Creo que el conocimiento científico tiene propiedades</tspan><tspan
         sodipodi:role="line"
         x="384.69717"
         y="823.30603"
         style="font-style:normal;font-variant:normal;font-weight:500;font-stretch:normal;font-size:17.5px;font-family:'CMU Serif';-inkscape-font-specification:'CMU Serif Medium';text-align:center;text-anchor:middle"
         id="tspan4652">fractales: que por mucho que aprendamos, lo que </tspan><tspan
         sodipodi:role="line"
         x="384.69717"
         y="845.18103"
         style="font-style:normal;font-variant:normal;font-weight:500;font-stretch:normal;font-size:17.5px;font-family:'CMU Serif';-inkscape-font-specification:'CMU Serif Medium';text-align:center;text-anchor:middle"
         id="tspan4654">queda, por pequeño que parezca, es tan infinitamente </tspan><tspan
         sodipodi:role="line"
         x="384.69717"
         y="867.05603"
         style="font-style:normal;font-variant:normal;font-weight:500;font-stretch:normal;font-size:17.5px;font-family:'CMU Serif';-inkscape-font-specification:'CMU Serif Medium';text-align:center;text-anchor:middle"
         id="tspan4656">complejo como el todo por el que empezamos. </tspan><tspan
         sodipodi:role="line"
         x="381.77481"
         y="888.93103"
         style="font-style:normal;font-variant:normal;font-weight:500;font-stretch:normal;font-size:17.5px;font-family:'CMU Serif';-inkscape-font-specification:'CMU Serif Medium';text-align:center;text-anchor:middle"
         id="tspan4658">Ese, creo yo, es el secreto del universo.</tspan><tspan
         sodipodi:role="line"
         x="381.77481"
         y="910.80603"
         style="font-style:normal;font-variant:normal;font-weight:500;font-stretch:normal;font-size:17.5px;font-family:'CMU Serif';-inkscape-font-specification:'CMU Serif Medium';text-align:center;text-anchor:middle"
         id="tspan4660" /><tspan
         sodipodi:role="line"
         x="381.77481"
         y="932.68103"
         style="font-style:normal;font-variant:normal;font-weight:500;font-stretch:normal;font-size:17.5px;font-family:'CMU Serif';-inkscape-font-specification:'CMU Serif Medium';text-align:center;text-anchor:middle"
         id="tspan4662">Isaac Asimov (1920-1992)</tspan></text>
    <rect
       y="-14.2762"
       x="1223.677"
       height="732.16675"
       width="601.64117"
       id="rect4188"
       style="opacity:1;fill:url(#linearGradient4205);fill-opacity:1;fill-rule:nonzero;stroke:none;stroke-width:3.54330707;stroke-linecap:butt;stroke-linejoin:round;stroke-miterlimit:4;stroke-dasharray:none;stroke-dashoffset:0;stroke-opacity:1" />
    <rect
       style="opacity:1;fill:url(#linearGradient4209);fill-opacity:1;fill-rule:nonzero;stroke:none;stroke-width:3.54330707;stroke-linecap:butt;stroke-linejoin:round;stroke-miterlimit:4;stroke-dasharray:none;stroke-dashoffset:0;stroke-opacity:1"
       id="rect4207"
       width="601.64117"
       height="383.41882"
       x="1223.677"
       y="334.47174" />
    <path
       style="fill:none;fill-rule:evenodd;stroke:#000000;stroke-width:7.97244072;stroke-linecap:round;stroke-linejoin:miter;stroke-miterlimit:4;stroke-dasharray:none;stroke-opacity:1"
       d="m 2852.5912,494.20892 -56.4562,57.57856"
       id="path4188"
       inkscape:connector-curvature="0"
       sodipodi:nodetypes="cc"
       inkscape:export-xdpi="600"
       inkscape:export-ydpi="600" />
    <path
       style="display:inline;opacity:1;fill:#000000;fill-opacity:1;fill-rule:evenodd;stroke:none;stroke-width:10.28912354;stroke-linecap:round;stroke-linejoin:round;stroke-miterlimit:4;stroke-dasharray:none;stroke-opacity:1"
       d="M 2881.3047 171.05273 C 2866.8883 171.03403 2852.4438 172.63618 2838.1172 174.27539 C 2820.6885 176.26954 2803.1669 178.60922 2786.2793 183.35742 C 2770.3661 187.83168 2754.8702 194.09439 2740.2422 201.79297 C 2724.3208 210.17217 2709.0952 220.06946 2695.082 231.35352 C 2681.8327 242.02245 2669.254 253.84026 2658.873 267.31641 C 2648.9302 280.22387 2641.0469 294.78883 2634.668 309.78125 C 2627.795 325.93486 2623.8798 360.21838 2623.8398 363.375 C 2623.6671 377.02587 2625.2497 390.80818 2623.3555 404.32812 C 2621.9721 414.20205 2612.816 422.89026 2614.1172 432.77539 C 2615.7652 445.29448 2632.1703 453.80728 2631.5273 466.41797 C 2630.7797 481.07955 2618.1727 492.60547 2610.4297 505.07812 C 2603.1156 516.85997 2594.0164 527.45305 2586.4316 539.0625 C 2577.9531 552.03985 2567.2319 564.10979 2562.2676 578.79492 C 2560.7642 583.2426 2564.9046 588.63116 2568.7773 591.28516 C 2576.5589 596.61786 2589.187 594.12374 2595.2188 601.37695 C 2600.651 607.90922 2599.2588 618.25585 2598.2168 626.6875 C 2597.1311 635.47266 2587.4769 642.87776 2589.0117 651.5957 C 2590 657.209 2603.3471 654.09839 2604.0391 659.75586 C 2604.7381 665.47062 2592.0618 665.86244 2591.457 671.58789 C 2589.6726 688.48017 2597.6262 705.20828 2597.4434 722.19336 C 2597.3684 729.11642 2588.9681 735.13667 2590.7012 741.83984 C 2592.2993 748.0205 2599.4484 752.22754 2605.625 753.8418 C 2620.4264 757.71067 2638.4198 749.53347 2651.3594 757.69531 C 2677.81 774.37942 2695.4818 828.28232 2698.7363 838.67188 C 2786.3666 893.05762 2889.6114 921.72692 3067.8906 826.80859 C 3065.4657 816.36535 3059.3061 796.86839 3057.8691 786.24414 C 3056.4773 775.95393 3056.4476 765.49407 3056.6973 755.11328 C 3056.9711 743.7285 3057.9714 732.35179 3059.4375 721.05859 C 3060.7859 710.67114 3062.5072 700.29756 3065.1289 690.15625 C 3069.7698 672.20492 3075.2825 654.47412 3081.1953 636.90039 C 3085.8658 623.01895 3090.7334 609.15302 3096.8594 595.84961 C 3104.598 579.04398 3113.8951 562.99865 3122.7148 546.73438 C 3130.0164 533.26978 3136.0244 516.50107 3140.793 501.94531 C 3146.7593 483.73386 3148.7764 461.26229 3150.1055 442.14453 C 3151.3203 424.67079 3152.943 414.52385 3149.7637 397.29883 C 3146.6569 380.46635 3142.5288 364.68772 3135.7949 348.95117 C 3129.0846 333.26984 3121.2348 318.04867 3112.5723 303.35547 C 3104.355 289.41761 3095.8239 275.48211 3085.2559 263.23047 C 3073.3826 249.46567 3060.2124 236.61815 3045.6367 225.75586 C 3030.4528 214.44034 3013.7873 205.00647 2996.5645 197.13477 C 2980.7614 189.91199 2963.9683 184.85089 2947.0918 180.7168 C 2928.7687 176.22835 2910.1112 172.45696 2891.2793 171.34375 C 2887.9574 171.14738 2884.6315 171.05705 2881.3047 171.05273 z M 2858.9141 196.38477 A 244.76124 173.45797 9.572248 0 1 2948.3652 207.48633 A 244.76124 173.45797 9.572248 0 1 3125.8652 433.70117 L 2889.9219 372.18945 L 3125.8496 433.74414 A 244.76124 173.45797 9.572248 0 1 2831.4473 536.88477 A 244.76124 173.45797 9.572248 0 1 2653.9844 310.6543 A 244.76124 173.45797 9.572248 0 1 2858.9141 196.38477 z "
       id="path4192"
       inkscape:export-xdpi="600"
       inkscape:export-ydpi="600" />
  </g>
</svg>
