<?xml version="1.0" encoding="UTF-8" standalone="no"?>
<!-- Created with Inkscape (http://www.inkscape.org/) -->

<svg
   xmlns:dc="http://purl.org/dc/elements/1.1/"
   xmlns:cc="http://creativecommons.org/ns#"
   xmlns:rdf="http://www.w3.org/1999/02/22-rdf-syntax-ns#"
   xmlns:svg="http://www.w3.org/2000/svg"
   xmlns="http://www.w3.org/2000/svg"
   xmlns:xlink="http://www.w3.org/1999/xlink"
   xmlns:sodipodi="http://sodipodi.sourceforge.net/DTD/sodipodi-0.dtd"
   xmlns:inkscape="http://www.inkscape.org/namespaces/inkscape"
   width="21cm"
   height="29.700001cm"
   viewBox="0 0 210 297"
   version="1.1"
   id="svg8"
   inkscape:version="0.92.2 (5c3e80d, 2017-08-06)"
   sodipodi:docname="cabeza_frase.svg">
  <defs
     id="defs2">
    <linearGradient
       inkscape:collect="always"
       id="linearGradient955-2-2-5">
      <stop
         style="stop-color:#1a1a1a;stop-opacity:1;"
         offset="0"
         id="stop951" />
      <stop
         style="stop-color:#1a1a1a;stop-opacity:0;"
         offset="1"
         id="stop953" />
    </linearGradient>
    <linearGradient
       inkscape:collect="always"
       id="linearGradient935">
      <stop
         style="stop-color:#1a1a1a;stop-opacity:1;"
         offset="0"
         id="stop931" />
      <stop
         style="stop-color:#1a1a1a;stop-opacity:0;"
         offset="1"
         id="stop933" />
    </linearGradient>
    <linearGradient
       inkscape:collect="always"
       id="linearGradient919">
      <stop
         style="stop-color:#1a1a1a;stop-opacity:0.03015075"
         offset="0"
         id="stop915" />
      <stop
         style="stop-color:#1a1a1a;stop-opacity:1"
         offset="1"
         id="stop917" />
    </linearGradient>
    <pattern
       y="0"
       x="0"
       height="6"
       width="6"
       patternUnits="userSpaceOnUse"
       id="EMFhbasepattern" />
    <radialGradient
       inkscape:collect="always"
       xlink:href="#linearGradient919"
       id="radialGradient921"
       cx="119.03772"
       cy="160.55164"
       fx="119.03772"
       fy="160.55164"
       r="63.163433"
       gradientTransform="matrix(1.0160384,0,0,0.71325844,-1.8560945,46.300714)"
       gradientUnits="userSpaceOnUse"
       spreadMethod="pad" />
    <radialGradient
       inkscape:collect="always"
       xlink:href="#linearGradient935"
       id="radialGradient937"
       cx="94.608543"
       cy="199.30757"
       fx="94.608543"
       fy="199.30757"
       r="39.321114"
       gradientTransform="matrix(1,0,0,0.75122407,0,49.582926)"
       gradientUnits="userSpaceOnUse" />
    <radialGradient
       inkscape:collect="always"
       xlink:href="#linearGradient935"
       id="radialGradient947"
       gradientUnits="userSpaceOnUse"
       gradientTransform="matrix(1.295756,0,0,0.84149584,-11.690852,28.859024)"
       cx="94.608543"
       cy="199.30757"
       fx="94.608543"
       fy="199.30757"
       r="39.321114" />
    <linearGradient
       inkscape:collect="always"
       xlink:href="#linearGradient955-2-2-5"
       id="linearGradient976"
       x1="320.00076"
       y1="735.9079"
       x2="314.72424"
       y2="1125.9078"
       gradientUnits="userSpaceOnUse" />
  </defs>
  <sodipodi:namedview
     id="base"
     pagecolor="#ffffff"
     bordercolor="#666666"
     borderopacity="1.0"
     inkscape:pageopacity="0.0"
     inkscape:pageshadow="2"
     inkscape:zoom="0.40149276"
     inkscape:cx="46.319771"
     inkscape:cy="451.64829"
     inkscape:document-units="cm"
     inkscape:current-layer="layer2"
     showgrid="false"
     inkscape:window-width="1366"
     inkscape:window-height="705"
     inkscape:window-x="-8"
     inkscape:window-y="-8"
     inkscape:window-maximized="1"
     units="cm" />
  <metadata
     id="metadata5">
    <rdf:RDF>
      <cc:Work
         rdf:about="">
        <dc:format>image/svg+xml</dc:format>
        <dc:type
           rdf:resource="http://purl.org/dc/dcmitype/StillImage" />
        <dc:title></dc:title>
      </cc:Work>
    </rdf:RDF>
  </metadata>
  <g
     inkscape:label="Capa 1"
     inkscape:groupmode="layer"
     id="layer1"
     style="display:none">
    <path
       id="path13"
       d="m 140.95958,296.59429 c -0.75347,-2.782 -2.60814,-8.0562 -3.0718,-10.89616 -0.46367,-2.782 -0.57959,-5.62196 -0.63754,-8.46192 0,-3.07181 0.17387,-6.14358 0.46367,-9.21539 0.28979,-2.83996 0.63753,-5.67992 1.27508,-8.46192 1.10121,-4.92645 2.43425,-9.73699 3.88321,-14.6055 1.15917,-3.76728 2.31833,-7.59254 3.88321,-11.24391 1.97058,-4.63667 4.34687,-9.04152 6.54929,-13.56227 1.85467,-3.70932 3.36159,-8.28804 4.52075,-12.28717 1.44896,-4.98442 1.79671,-11.12801 1.97058,-16.2863 0.17388,-4.75257 0.52163,-7.53457 -0.46366,-12.17123 -0.98529,-4.52076 -2.26038,-8.80967 -4.23096,-12.98268 -1.97058,-4.23097 -4.23095,-8.28804 -6.72317,-12.17126 -2.31833,-3.70932 -4.75258,-7.41866 -7.70846,-10.66434 -3.36159,-3.59341 -7.07092,-6.955 -11.128,-9.79496 -4.173,-2.89791 -8.80967,-5.33215 -13.56226,-7.30275 -4.34687,-1.85465 -8.92558,-3.07178 -13.56225,-3.99911 -4.984421,-1.10122 -10.084751,-1.91264 -15.185081,-2.08651 -4.81055,-0.11583 -9.62109,0.5796 -14.43164,1.27507 -4.69462,0.69551 -9.389246,1.50692 -13.967954,2.9559 -4.230959,1.33304 -8.403961,3.18769 -12.28717,5.39011 -4.230959,2.43427 -8.288044,5.21627 -11.997379,8.40398 -3.477499,3.01381 -6.781128,6.31746 -9.50517,10.08475 -2.550166,3.5934 -4.578709,7.59253 -6.201542,11.76554 -1.680793,4.40482 -2.434252,13.73612 -2.434252,14.6055 0.05797,3.70934 0.637543,7.41866 0.231844,11.128 -0.28979,2.66609 -2.666083,5.10033 -2.260376,7.76641 0.579583,3.3616 5.100335,5.56402 5.042378,8.98355 -0.05797,3.99913 -3.419542,7.18684 -5.390128,10.66434 -1.854666,3.24566 -4.2309584,6.20153 -6.2015414,9.44721 -2.202419,3.59341 -6.549295,6.955 -7.76642097,10.95413 -0.34775,1.21713 0.811417,2.66608 1.91262597,3.36159 2.144459,1.39098 7.070918,0.57957 8.8096704,2.49221 1.506917,1.73873 1.217124,4.52075 1.04325,6.83909 -0.231844,2.37627 -2.7820024,4.46279 -2.3183354,6.83906 0.34775,1.50692 3.9411684,0.52163 4.1730014,2.08652 0.231845,1.50691 -3.187709,1.73873 -3.303625,3.30362 -0.34775,4.5787 1.970583,9.04149 2.086502,13.67818 0,1.85464 -2.202419,3.59341 -1.680793,5.39011 0.463667,1.6808 2.492207,2.72405 4.172999,3.12975 4.057086,0.92735 8.635794,-1.15917 12.403089,0.63753 2.724043,1.21714 5.100335,3.65138 6.085625,6.49134 0.985293,2.78202 1.043253,5.96971 -0.695499,8.92561 z"
       style="fill:#4d4d4d;fill-opacity:1;fill-rule:evenodd;stroke:none;stroke-width:0.72448468"
       inkscape:connector-curvature="0" />
    <image
       sodipodi:absref="C:\Users\EQUIPO 1\Desktop\julio\tesis_respaldo\TESIS\frase.png"
       xlink:href="frase.png"
       width="160"
       height="194.80029"
       preserveAspectRatio="none"
       id="image34"
       x="-308.10202"
       y="72.345627" />
    <path
       inkscape:connector-curvature="0"
       style="fill:#4d4d4d;fill-opacity:1;fill-rule:evenodd;stroke:none;stroke-width:0.72448468"
       d="m -1.159468,110.63 c -0.75347,-2.782 -2.60814,-8.0562 -3.0718,-10.896156 -0.46367,-2.782 -0.57959,-5.62196 -0.63754,-8.46192 0,-3.07181 0.17387,-6.14358 0.46367,-9.21539 0.28979,-2.83996 0.63753,-5.67992 1.27508,-8.46192 1.10121,-4.92645 2.43425001,-9.73699 3.88321001,-14.6055 1.15916999,-3.76728 2.31832999,-7.59254 3.88320999,-11.24391 1.97058,-4.63667 4.34687,-9.04152 6.54929,-13.56227 1.85467,-3.70932 3.36159,-8.28804 4.52075,-12.28717 1.44896,-4.98442 1.79671,-11.12801 1.97058,-16.2863002 0.17388,-4.75257 0.52163,-7.53457 -0.46366,-12.17123 -0.98529,-4.5207598 -2.26038,-8.8096698 -4.23096,-12.9826798 -1.97058,-4.23097 -4.23095,-8.28804 -6.72317,-12.17126 -2.31833,-3.70932 -4.75258,-7.41866 -7.70846,-10.66434 -3.36159,-3.59341 -7.07092,-6.955 -11.128,-9.79496 -4.173,-2.89791 -8.80967,-5.33215 -13.56226,-7.30275 -4.34687,-1.85465 -8.92558,-3.07178 -13.56225,-3.99911 -4.984421,-1.10122 -10.084751,-1.91264 -15.185081,-2.08651 -4.81055,-0.11583 -9.62109,0.5796 -14.43164,1.27507 -4.69462,0.69551 -9.389246,1.50692 -13.967954,2.9559 -4.230959,1.33304 -8.403961,3.18769 -12.28717,5.39011 -4.230959,2.43427 -8.288047,5.21627 -11.997377,8.40398 -3.4775,3.01381 -6.78113,6.31746 -9.50517,10.08475 -2.55017,3.5934 -4.57871,7.59253 -6.20154,11.76554 -1.6808,4.40482 -2.43426,13.73612 -2.43426,14.6055 0.058,3.7093398 0.63755,7.4186598 0.23185,11.1279998 -0.28979,2.66609 -2.66608,5.10033 -2.26038,7.76641 0.57959,3.3616002 5.10034,5.5640202 5.04238,8.9835502 -0.058,3.99913 -3.41954,7.18684 -5.39013,10.66434 -1.85466,3.24566 -4.23096,6.20153 -6.20154,9.44721 -2.20242,3.59341 -6.54929,6.955 -7.76642,10.95413 -0.34775,1.21713 0.81142,2.66608 1.91263,3.36159 2.14445,1.39098 7.07091,0.57957 8.80967,2.49221 1.50691,1.73873 1.21712,4.52075 1.04325,6.83909 -0.23185,2.37627 -2.78201,4.46279 -2.31834,6.83906 0.34775,1.50692 3.94117,0.52163 4.173,2.08652 0.23185,1.50691 -3.18771,1.73873 -3.30362,3.30362 -0.34775,4.5787 1.97058,9.04149 2.0865,13.67818 0,1.85464 -2.20242,3.59341 -1.68079,5.39011 0.46366,1.6808 2.4922,2.72405 4.173,3.12975 4.05708,0.92735 8.63579,-1.15917 12.40308,0.63753 2.72405,1.21714 5.10034,3.65138 6.08563,6.491336 0.98529,2.78202 1.04325,5.96971 -0.6955,8.92561 z"
       id="path897" />
  </g>
  <g
     inkscape:groupmode="layer"
     id="layer2"
     inkscape:label="Capa 2">
    <image
       sodipodi:absref="C:\Users\EQUIPO 1\Desktop\julio\Overleaf\tesis\g152377.png"
       y="126.18581"
       x="27.117228"
       id="image45"
       xlink:href="file:///C:/Users/EQUIPO%201/Desktop/julio/Overleaf/tesis/g152377.png"
       preserveAspectRatio="none"
       height="105.53829"
       width="131.97531"
       transform="rotate(1.3223036)"
       inkscape:export-xdpi="600.00995"
       inkscape:export-ydpi="600.00995" />
    <path
       style="display:inline;fill:url(#linearGradient976);fill-opacity:1;fill-rule:evenodd;stroke:none;stroke-width:2.73820972"
       d="M 326.28711 455.01172 C 309.24185 454.94939 292.19759 457.41269 275.15234 459.87695 C 257.40889 462.50565 239.66472 465.57237 222.35938 471.04883 C 206.36835 476.08709 190.59662 483.09777 175.91992 491.42188 C 159.9289 500.62227 144.5957 511.13751 130.57617 523.18555 C 117.43287 534.57632 104.94598 547.0622 94.650391 561.30078 C 85.011968 574.8821 77.34448 589.99749 71.210938 605.76953 C 64.858334 622.41767 62.011719 657.68482 62.011719 660.9707 C 62.230818 674.99022 64.420069 689.00978 62.886719 703.0293 C 61.791449 713.10586 52.810369 722.30633 54.34375 732.38281 C 56.5343 745.08807 73.621394 753.41173 73.402344 766.33594 C 73.183245 781.45076 60.477181 793.49931 53.029297 806.64258 C 46.019536 818.90964 37.03967 830.08056 29.591797 842.34766 C 21.267694 855.92905 4.8384424 868.63522 0.23828125 883.75 C -1.0760495 888.35018 3.3047472 893.82638 7.4667969 896.45508 C 15.571839 901.71233 34.192009 898.64609 40.763672 905.875 C 46.459106 912.44654 45.36224 922.96043 44.705078 931.72266 C 43.828817 940.7038 34.190917 948.58913 35.943359 957.57031 C 37.25769 963.26576 50.838625 959.54252 51.714844 965.45703 C 52.591108 971.15244 39.666623 972.02881 39.228516 977.94336 C 37.914185 995.24872 46.677115 1012.1161 47.115234 1029.6406 C 47.115234 1036.6503 38.792172 1043.221 40.763672 1050.0117 C 42.516114 1056.3643 50.182557 1060.3084 56.535156 1061.8418 C 71.869025 1065.3467 89.173518 1057.4593 103.41211 1064.25 C 113.70771 1068.8502 122.69013 1078.0514 126.41406 1088.7852 C 130.138 1099.2999 130.35682 1111.3476 123.78516 1122.5195 L 532.75977 1120.9863 C 529.91201 1110.4717 522.90281 1090.5384 521.15039 1079.8047 C 519.39794 1069.29 518.95926 1058.556 518.74023 1047.8223 C 518.74023 1036.2123 519.39883 1024.6022 520.49414 1012.9922 C 521.58941 1002.2585 522.90286 991.52441 525.3125 981.00977 C 529.47455 962.39011 534.51385 944.20926 539.99023 925.80859 C 544.37135 911.57006 548.75151 897.11104 554.66602 883.31055 C 562.11388 865.78612 571.09581 849.13903 579.41992 832.05273 C 586.4297 818.03326 592.12478 800.72814 596.50586 785.61328 C 601.98224 766.77453 603.29598 743.55446 603.95312 724.05859 C 604.61031 706.09612 605.9251 695.58102 602.20117 678.05664 C 598.47724 660.9703 593.6588 644.76029 586.21094 628.98828 C 578.76308 612.99718 570.21824 597.66307 560.79883 582.98633 C 552.03664 568.96685 542.83785 554.94682 531.66602 542.67969 C 518.96079 529.0983 504.94127 516.39386 489.60742 505.66016 C 473.83545 494.70743 456.3102 485.50657 438.34766 478.05859 C 421.91854 471.04889 404.61427 466.45018 387.08984 462.94531 C 368.25108 458.78322 348.9741 455.71574 329.69727 455.05859 C 328.56091 455.03123 327.42346 455.01587 326.28711 455.01172 z M 300.36719 514.13281 A 238.77876 167.51447 12.475308 0 1 364.05859 520.64453 A 238.77876 167.51447 12.475308 0 1 568.72852 732.45312 A 238.77876 167.51447 12.475308 0 1 305.21484 850.61328 A 238.77876 167.51447 12.475308 0 1 100.54492 638.80469 A 238.77876 167.51447 12.475308 0 1 300.36719 514.13281 z "
       id="path876"
       transform="scale(0.26458333)"
       inkscape:export-xdpi="600.00995"
       inkscape:export-ydpi="600.00995" />
    <ellipse
       style="opacity:1;fill:url(#radialGradient921);fill-opacity:1;stroke:none;stroke-width:0.27393523;stroke-linecap:round;stroke-linejoin:round;stroke-miterlimit:4;stroke-dasharray:none;stroke-dashoffset:0;stroke-opacity:1;paint-order:normal"
       id="path64"
       cx="119.0908"
       cy="160.81554"
       rx="64.176476"
       ry="45.051853"
       transform="matrix(0.98057613,0.19613885,-0.17555883,0.98446894,0,0)"
       inkscape:export-xdpi="600.00995"
       inkscape:export-ydpi="600.00995" />
    <ellipse
       transform="matrix(0.97762996,0.21033227,-0.16356229,0.98653301,0,0)"
       ry="29.538967"
       rx="39.321114"
       cy="199.30757"
       cx="94.608543"
       id="ellipse874"
       style="opacity:1;fill:url(#radialGradient937);fill-opacity:1;stroke:none;stroke-width:0.17362577;stroke-linecap:round;stroke-linejoin:round;stroke-miterlimit:4;stroke-dasharray:none;stroke-dashoffset:0;stroke-opacity:1;paint-order:normal"
       inkscape:export-xdpi="600.00995"
       inkscape:export-ydpi="600.00995" />
    <path
       id="path899"
       d="m -55.788918,-65.57577 c -4.509892,-0.01649 -9.019519,0.635257 -13.529408,1.287259 -4.694621,0.69551 -9.389432,1.506913 -13.968137,2.955893 -4.23096,1.333039 -8.403897,3.187948 -12.287107,5.390369 -4.230957,2.43427 -8.28787,5.216427 -11.9972,8.404138 -3.4775,3.013808 -6.78132,6.317363 -9.50536,10.084654 -2.55017,3.593391 -4.57886,7.592671 -6.20169,11.76569 -1.68079,4.404821 -2.43396,13.735921 -2.43396,14.60531 0.058,3.7093309 0.63721,7.4186728 0.23151,11.12800408 -0.28979,2.66608982 -2.66603,5.10038082 -2.26033,7.76644942 0.57959,3.3616005 5.10055,5.5639015 5.04259,8.9834325 -0.058,3.999129 -3.41978,7.186975 -5.39037,10.664465 -1.85467,3.245659 -4.23059,6.201299 -6.20117,9.446969 -2.20242,3.593409 -6.54933,6.95525 -7.76645,10.954369 -0.34775,1.217131 0.81133,2.666042 1.91254,3.361552 2.14446,1.390981 7.07105,0.579705 8.8098,2.492354 1.50692,1.73872 1.2167,4.52052 1.04283,6.83886 -0.23184,2.37626 -2.78187,4.462587 -2.3182,6.838857 0.34775,1.506921 3.94103,0.521814 4.17287,2.086695 0.23184,1.50691 -3.18776,1.738783 -3.30368,3.303675 -0.34775,4.578709 1.97078,9.041537 2.0867,13.678227 0,1.85465 -2.20215,3.593148 -1.68052,5.389854 0.46367,1.680792 2.49208,2.724335 4.17287,3.130047 4.05709,0.927338 8.63557,-1.159536 12.40286,0.63717 2.72405,1.217136 5.10065,3.65162 6.08593,6.491607 0.9853,2.78201 1.04319,5.96963 -0.69556,8.92553 L -1.159694,110.63 c -0.7534698,-2.78199 -2.6079873,-8.056 -3.0716484,-10.895963 -0.463669,-2.782014 -0.5797364,-5.622052 -0.6376881,-8.46201 0,-3.071812 0.1742545,-6.143651 0.4640553,-9.215464 0.2897902,-2.839958 0.6373072,-5.680019 1.2748577,-8.462017 1.1012091,-4.926452 2.43452387,-9.736802 3.88348273,-14.605313 C 1.9125365,55.221956 3.0714539,51.39634 4.6363346,47.744961 6.6069142,43.108288 8.9833832,38.703746 11.185804,34.182996 c 1.854671,-3.709318 3.361494,-8.287964 4.520655,-12.287104 1.448959,-4.98442 1.796552,-11.128063 1.970421,-16.2863453 0.173881,-4.75257017 0.521753,-7.5346903 -0.463537,-12.1713492 -0.98529,-4.5207605 -2.260169,-8.8096595 -4.230748,-12.9826705 -1.97058,-4.230978 -4.2314022,-8.288128 -6.7236211,-12.171349 -2.3183294,-3.70932 -4.7521759,-7.418787 -7.7080559,-10.664465 -3.361592,-3.593409 -7.0709233,-6.954792 -11.128004,-9.79475 -4.173001,-2.89791 -8.80989,-5.332304 -13.562478,-7.302916 -4.346872,-1.854649 -8.925293,-3.071391 -13.561965,-3.998721 -4.984422,-1.10122 -10.08479,-1.912824 -15.185117,-2.086695 -0.300662,-0.0072 -0.601613,-0.0113 -0.902272,-0.0124 z m -6.857979,15.642455 a 63.176879,44.321536 12.475308 0 1 16.851683,1.722892 A 63.176879,44.321536 12.475308 0 1 8.3570377,7.8305994 63.176879,44.321536 12.475308 0 1 -61.364289,39.093808 63.176879,44.321536 12.475308 0 1 -115.51654,-16.947214 63.176879,44.321536 12.475308 0 1 -62.646897,-49.933315 Z"
       style="display:inline;fill:#4d4de0;fill-opacity:0.46733668;fill-rule:evenodd;stroke:none;stroke-width:0.72448462"
       inkscape:connector-curvature="0" />
    <image
       transform="rotate(1.3223036)"
       width="131.97531"
       height="105.53829"
       preserveAspectRatio="none"
       xlink:href="file:///C:/Users/EQUIPO%201/Desktop/julio/Overleaf/tesis/g152377.png"
       id="image901"
       x="-119.25538"
       y="-56.449348"
       sodipodi:absref="C:\Users\EQUIPO 1\Desktop\julio\Overleaf\tesis\g152377.png" />
    <ellipse
       transform="matrix(0.98057613,0.19613885,-0.17555883,0.98446894,0,0)"
       ry="44.340698"
       rx="63.163433"
       cy="6.0406704"
       cx="-53.559601"
       id="ellipse903"
       style="opacity:1;fill:#4d0d4d;fill-opacity:0.52763821;stroke:none;stroke-width:0.26961109;stroke-linecap:round;stroke-linejoin:round;stroke-miterlimit:4;stroke-dasharray:none;stroke-dashoffset:0;stroke-opacity:1;paint-order:normal" />
    <ellipse
       style="opacity:1;fill:#4d0d09;fill-opacity:0.52763821;stroke:none;stroke-width:0.15609302;stroke-linecap:round;stroke-linejoin:round;stroke-miterlimit:4;stroke-dasharray:none;stroke-dashoffset:0;stroke-opacity:1;paint-order:normal"
       id="ellipse905"
       cx="-76.531517"
       cy="50.393017"
       rx="35.350464"
       ry="26.55612"
       transform="matrix(0.97762996,0.21033227,-0.16356229,0.98653301,0,0)" />
    <ellipse
       style="opacity:1;fill:url(#radialGradient947);fill-opacity:1;stroke:none;stroke-width:0.20917849;stroke-linecap:round;stroke-linejoin:round;stroke-miterlimit:4;stroke-dasharray:none;stroke-dashoffset:0;stroke-opacity:1;paint-order:normal"
       id="ellipse939"
       cx="110.89874"
       cy="196.57552"
       rx="50.950573"
       ry="33.088554"
       transform="matrix(0.98349367,0.18094256,-0.19033603,0.981719,0,0)"
       inkscape:export-xdpi="600.00995"
       inkscape:export-ydpi="600.00995" />
    <ellipse
       transform="matrix(0.98057613,0.19613885,-0.17555883,0.98446894,0,0)"
       ry="45.051853"
       rx="64.176476"
       cy="160.81554"
       cx="119.0908"
       id="ellipse945"
       style="opacity:1;fill:url(#radialGradient921);fill-opacity:1;stroke:none;stroke-width:0.27393523;stroke-linecap:round;stroke-linejoin:round;stroke-miterlimit:4;stroke-dasharray:none;stroke-dashoffset:0;stroke-opacity:1;paint-order:normal"
       inkscape:export-xdpi="600.00995"
       inkscape:export-ydpi="600.00995" />
    <path
       transform="scale(0.26458333)"
       id="path982"
       d="M 326.28711 455.01172 C 309.24185 454.94939 292.19759 457.41269 275.15234 459.87695 C 257.40889 462.50565 239.66472 465.57237 222.35938 471.04883 C 206.36835 476.08709 190.59662 483.09777 175.91992 491.42188 C 159.9289 500.62227 144.5957 511.13751 130.57617 523.18555 C 117.43287 534.57632 104.94598 547.0622 94.650391 561.30078 C 85.011968 574.8821 77.34448 589.99749 71.210938 605.76953 C 64.858334 622.41767 62.011719 657.68482 62.011719 660.9707 C 62.230818 674.99022 64.420069 689.00978 62.886719 703.0293 C 61.791449 713.10586 52.810369 722.30633 54.34375 732.38281 C 56.5343 745.08807 73.621394 753.41173 73.402344 766.33594 C 73.183245 781.45076 60.477181 793.49931 53.029297 806.64258 C 46.019536 818.90964 37.03967 830.08056 29.591797 842.34766 C 21.267694 855.92905 4.8384424 868.63522 0.23828125 883.75 C -1.0760495 888.35018 3.3047472 893.82638 7.4667969 896.45508 C 15.571839 901.71233 34.192009 898.64609 40.763672 905.875 C 46.459106 912.44654 45.36224 922.96043 44.705078 931.72266 C 43.828817 940.7038 34.190917 948.58913 35.943359 957.57031 C 37.25769 963.26576 50.838625 959.54252 51.714844 965.45703 C 52.591108 971.15244 39.666623 972.02881 39.228516 977.94336 C 37.914185 995.24872 46.677115 1012.1161 47.115234 1029.6406 C 47.115234 1036.6503 38.792172 1043.221 40.763672 1050.0117 C 42.516114 1056.3643 50.182557 1060.3084 56.535156 1061.8418 C 71.869025 1065.3467 89.173518 1057.4593 103.41211 1064.25 C 113.70771 1068.8502 122.69013 1078.0514 126.41406 1088.7852 C 130.138 1099.2999 130.35682 1111.3476 123.78516 1122.5195 L 532.75977 1120.9863 C 529.91201 1110.4717 522.90281 1090.5384 521.15039 1079.8047 C 519.39794 1069.29 518.95926 1058.556 518.74023 1047.8223 C 518.74023 1036.2123 519.39883 1024.6022 520.49414 1012.9922 C 521.58941 1002.2585 522.90286 991.52441 525.3125 981.00977 C 529.47455 962.39011 534.51385 944.20926 539.99023 925.80859 C 544.37135 911.57006 548.75151 897.11104 554.66602 883.31055 C 562.11388 865.78612 571.09581 849.13903 579.41992 832.05273 C 586.4297 818.03326 592.12478 800.72814 596.50586 785.61328 C 601.98224 766.77453 603.29598 743.55446 603.95312 724.05859 C 604.61031 706.09612 605.9251 695.58102 602.20117 678.05664 C 598.47724 660.9703 593.6588 644.76029 586.21094 628.98828 C 578.76308 612.99718 570.21824 597.66307 560.79883 582.98633 C 552.03664 568.96685 542.83785 554.94682 531.66602 542.67969 C 518.96079 529.0983 504.94127 516.39386 489.60742 505.66016 C 473.83545 494.70743 456.3102 485.50657 438.34766 478.05859 C 421.91854 471.04889 404.61427 466.45018 387.08984 462.94531 C 368.25108 458.78322 348.9741 455.71574 329.69727 455.05859 C 328.56091 455.03123 327.42346 455.01587 326.28711 455.01172 z M 300.36719 514.13281 A 238.77876 167.51447 12.475308 0 1 364.05859 520.64453 A 238.77876 167.51447 12.475308 0 1 568.72852 732.45312 A 238.77876 167.51447 12.475308 0 1 305.21484 850.61328 A 238.77876 167.51447 12.475308 0 1 100.54492 638.80469 A 238.77876 167.51447 12.475308 0 1 300.36719 514.13281 z "
       style="display:inline;fill:url(#linearGradient976);fill-opacity:1;fill-rule:evenodd;stroke:none;stroke-width:2.73820972"
       inkscape:export-xdpi="600.00995"
       inkscape:export-ydpi="600.00995" />
    <path
       style="display:inline;fill:url(#linearGradient976);fill-opacity:1;fill-rule:evenodd;stroke:none;stroke-width:2.73820972"
       d="M 326.28711 455.01172 C 309.24185 454.94939 292.19759 457.41269 275.15234 459.87695 C 257.40889 462.50565 239.66472 465.57237 222.35938 471.04883 C 206.36835 476.08709 190.59662 483.09777 175.91992 491.42188 C 159.9289 500.62227 144.5957 511.13751 130.57617 523.18555 C 117.43287 534.57632 104.94598 547.0622 94.650391 561.30078 C 85.011968 574.8821 77.34448 589.99749 71.210938 605.76953 C 64.858334 622.41767 62.011719 657.68482 62.011719 660.9707 C 62.230818 674.99022 64.420069 689.00978 62.886719 703.0293 C 61.791449 713.10586 52.810369 722.30633 54.34375 732.38281 C 56.5343 745.08807 73.621394 753.41173 73.402344 766.33594 C 73.183245 781.45076 60.477181 793.49931 53.029297 806.64258 C 46.019536 818.90964 37.03967 830.08056 29.591797 842.34766 C 21.267694 855.92905 4.8384424 868.63522 0.23828125 883.75 C -1.0760495 888.35018 3.3047472 893.82638 7.4667969 896.45508 C 15.571839 901.71233 34.192009 898.64609 40.763672 905.875 C 46.459106 912.44654 45.36224 922.96043 44.705078 931.72266 C 43.828817 940.7038 34.190917 948.58913 35.943359 957.57031 C 37.25769 963.26576 50.838625 959.54252 51.714844 965.45703 C 52.591108 971.15244 39.666623 972.02881 39.228516 977.94336 C 37.914185 995.24872 46.677115 1012.1161 47.115234 1029.6406 C 47.115234 1036.6503 38.792172 1043.221 40.763672 1050.0117 C 42.516114 1056.3643 50.182557 1060.3084 56.535156 1061.8418 C 71.869025 1065.3467 89.173518 1057.4593 103.41211 1064.25 C 113.70771 1068.8502 122.69013 1078.0514 126.41406 1088.7852 C 130.138 1099.2999 130.35682 1111.3476 123.78516 1122.5195 L 532.75977 1120.9863 C 529.91201 1110.4717 522.90281 1090.5384 521.15039 1079.8047 C 519.39794 1069.29 518.95926 1058.556 518.74023 1047.8223 C 518.74023 1036.2123 519.39883 1024.6022 520.49414 1012.9922 C 521.58941 1002.2585 522.90286 991.52441 525.3125 981.00977 C 529.47455 962.39011 534.51385 944.20926 539.99023 925.80859 C 544.37135 911.57006 548.75151 897.11104 554.66602 883.31055 C 562.11388 865.78612 571.09581 849.13903 579.41992 832.05273 C 586.4297 818.03326 592.12478 800.72814 596.50586 785.61328 C 601.98224 766.77453 603.29598 743.55446 603.95312 724.05859 C 604.61031 706.09612 605.9251 695.58102 602.20117 678.05664 C 598.47724 660.9703 593.6588 644.76029 586.21094 628.98828 C 578.76308 612.99718 570.21824 597.66307 560.79883 582.98633 C 552.03664 568.96685 542.83785 554.94682 531.66602 542.67969 C 518.96079 529.0983 504.94127 516.39386 489.60742 505.66016 C 473.83545 494.70743 456.3102 485.50657 438.34766 478.05859 C 421.91854 471.04889 404.61427 466.45018 387.08984 462.94531 C 368.25108 458.78322 348.9741 455.71574 329.69727 455.05859 C 328.56091 455.03123 327.42346 455.01587 326.28711 455.01172 z M 300.36719 514.13281 A 238.77876 167.51447 12.475308 0 1 364.05859 520.64453 A 238.77876 167.51447 12.475308 0 1 568.72852 732.45312 A 238.77876 167.51447 12.475308 0 1 305.21484 850.61328 A 238.77876 167.51447 12.475308 0 1 100.54492 638.80469 A 238.77876 167.51447 12.475308 0 1 300.36719 514.13281 z "
       id="path984"
       transform="scale(0.26458333)"
       inkscape:export-xdpi="600.00995"
       inkscape:export-ydpi="600.00995" />
    <path
       transform="scale(0.26458333)"
       id="path986"
       d="M 326.28711 455.01172 C 309.24185 454.94939 292.19759 457.41269 275.15234 459.87695 C 257.40889 462.50565 239.66472 465.57237 222.35938 471.04883 C 206.36835 476.08709 190.59662 483.09777 175.91992 491.42188 C 159.9289 500.62227 144.5957 511.13751 130.57617 523.18555 C 117.43287 534.57632 104.94598 547.0622 94.650391 561.30078 C 85.011968 574.8821 77.34448 589.99749 71.210938 605.76953 C 64.858334 622.41767 62.011719 657.68482 62.011719 660.9707 C 62.230818 674.99022 64.420069 689.00978 62.886719 703.0293 C 61.791449 713.10586 52.810369 722.30633 54.34375 732.38281 C 56.5343 745.08807 73.621394 753.41173 73.402344 766.33594 C 73.183245 781.45076 60.477181 793.49931 53.029297 806.64258 C 46.019536 818.90964 37.03967 830.08056 29.591797 842.34766 C 21.267694 855.92905 4.8384424 868.63522 0.23828125 883.75 C -1.0760495 888.35018 3.3047472 893.82638 7.4667969 896.45508 C 15.571839 901.71233 34.192009 898.64609 40.763672 905.875 C 46.459106 912.44654 45.36224 922.96043 44.705078 931.72266 C 43.828817 940.7038 34.190917 948.58913 35.943359 957.57031 C 37.25769 963.26576 50.838625 959.54252 51.714844 965.45703 C 52.591108 971.15244 39.666623 972.02881 39.228516 977.94336 C 37.914185 995.24872 46.677115 1012.1161 47.115234 1029.6406 C 47.115234 1036.6503 38.792172 1043.221 40.763672 1050.0117 C 42.516114 1056.3643 50.182557 1060.3084 56.535156 1061.8418 C 71.869025 1065.3467 89.173518 1057.4593 103.41211 1064.25 C 113.70771 1068.8502 122.69013 1078.0514 126.41406 1088.7852 C 130.138 1099.2999 130.35682 1111.3476 123.78516 1122.5195 L 532.75977 1120.9863 C 529.91201 1110.4717 522.90281 1090.5384 521.15039 1079.8047 C 519.39794 1069.29 518.95926 1058.556 518.74023 1047.8223 C 518.74023 1036.2123 519.39883 1024.6022 520.49414 1012.9922 C 521.58941 1002.2585 522.90286 991.52441 525.3125 981.00977 C 529.47455 962.39011 534.51385 944.20926 539.99023 925.80859 C 544.37135 911.57006 548.75151 897.11104 554.66602 883.31055 C 562.11388 865.78612 571.09581 849.13903 579.41992 832.05273 C 586.4297 818.03326 592.12478 800.72814 596.50586 785.61328 C 601.98224 766.77453 603.29598 743.55446 603.95312 724.05859 C 604.61031 706.09612 605.9251 695.58102 602.20117 678.05664 C 598.47724 660.9703 593.6588 644.76029 586.21094 628.98828 C 578.76308 612.99718 570.21824 597.66307 560.79883 582.98633 C 552.03664 568.96685 542.83785 554.94682 531.66602 542.67969 C 518.96079 529.0983 504.94127 516.39386 489.60742 505.66016 C 473.83545 494.70743 456.3102 485.50657 438.34766 478.05859 C 421.91854 471.04889 404.61427 466.45018 387.08984 462.94531 C 368.25108 458.78322 348.9741 455.71574 329.69727 455.05859 C 328.56091 455.03123 327.42346 455.01587 326.28711 455.01172 z M 300.36719 514.13281 A 238.77876 167.51447 12.475308 0 1 364.05859 520.64453 A 238.77876 167.51447 12.475308 0 1 568.72852 732.45312 A 238.77876 167.51447 12.475308 0 1 305.21484 850.61328 A 238.77876 167.51447 12.475308 0 1 100.54492 638.80469 A 238.77876 167.51447 12.475308 0 1 300.36719 514.13281 z "
       style="display:inline;fill:url(#linearGradient976);fill-opacity:1;fill-rule:evenodd;stroke:none;stroke-width:2.73820972"
       inkscape:export-xdpi="600.00995"
       inkscape:export-ydpi="600.00995" />
    <path
       style="display:inline;fill:url(#linearGradient976);fill-opacity:1;fill-rule:evenodd;stroke:none;stroke-width:2.73820972"
       d="M 326.28711 455.01172 C 309.24185 454.94939 292.19759 457.41269 275.15234 459.87695 C 257.40889 462.50565 239.66472 465.57237 222.35938 471.04883 C 206.36835 476.08709 190.59662 483.09777 175.91992 491.42188 C 159.9289 500.62227 144.5957 511.13751 130.57617 523.18555 C 117.43287 534.57632 104.94598 547.0622 94.650391 561.30078 C 85.011968 574.8821 77.34448 589.99749 71.210938 605.76953 C 64.858334 622.41767 62.011719 657.68482 62.011719 660.9707 C 62.230818 674.99022 64.420069 689.00978 62.886719 703.0293 C 61.791449 713.10586 52.810369 722.30633 54.34375 732.38281 C 56.5343 745.08807 73.621394 753.41173 73.402344 766.33594 C 73.183245 781.45076 60.477181 793.49931 53.029297 806.64258 C 46.019536 818.90964 37.03967 830.08056 29.591797 842.34766 C 21.267694 855.92905 4.8384424 868.63522 0.23828125 883.75 C -1.0760495 888.35018 3.3047472 893.82638 7.4667969 896.45508 C 15.571839 901.71233 34.192009 898.64609 40.763672 905.875 C 46.459106 912.44654 45.36224 922.96043 44.705078 931.72266 C 43.828817 940.7038 34.190917 948.58913 35.943359 957.57031 C 37.25769 963.26576 50.838625 959.54252 51.714844 965.45703 C 52.591108 971.15244 39.666623 972.02881 39.228516 977.94336 C 37.914185 995.24872 46.677115 1012.1161 47.115234 1029.6406 C 47.115234 1036.6503 38.792172 1043.221 40.763672 1050.0117 C 42.516114 1056.3643 50.182557 1060.3084 56.535156 1061.8418 C 71.869025 1065.3467 89.173518 1057.4593 103.41211 1064.25 C 113.70771 1068.8502 122.69013 1078.0514 126.41406 1088.7852 C 130.138 1099.2999 130.35682 1111.3476 123.78516 1122.5195 L 532.75977 1120.9863 C 529.91201 1110.4717 522.90281 1090.5384 521.15039 1079.8047 C 519.39794 1069.29 518.95926 1058.556 518.74023 1047.8223 C 518.74023 1036.2123 519.39883 1024.6022 520.49414 1012.9922 C 521.58941 1002.2585 522.90286 991.52441 525.3125 981.00977 C 529.47455 962.39011 534.51385 944.20926 539.99023 925.80859 C 544.37135 911.57006 548.75151 897.11104 554.66602 883.31055 C 562.11388 865.78612 571.09581 849.13903 579.41992 832.05273 C 586.4297 818.03326 592.12478 800.72814 596.50586 785.61328 C 601.98224 766.77453 603.29598 743.55446 603.95312 724.05859 C 604.61031 706.09612 605.9251 695.58102 602.20117 678.05664 C 598.47724 660.9703 593.6588 644.76029 586.21094 628.98828 C 578.76308 612.99718 570.21824 597.66307 560.79883 582.98633 C 552.03664 568.96685 542.83785 554.94682 531.66602 542.67969 C 518.96079 529.0983 504.94127 516.39386 489.60742 505.66016 C 473.83545 494.70743 456.3102 485.50657 438.34766 478.05859 C 421.91854 471.04889 404.61427 466.45018 387.08984 462.94531 C 368.25108 458.78322 348.9741 455.71574 329.69727 455.05859 C 328.56091 455.03123 327.42346 455.01587 326.28711 455.01172 z M 300.36719 514.13281 A 238.77876 167.51447 12.475308 0 1 364.05859 520.64453 A 238.77876 167.51447 12.475308 0 1 568.72852 732.45312 A 238.77876 167.51447 12.475308 0 1 305.21484 850.61328 A 238.77876 167.51447 12.475308 0 1 100.54492 638.80469 A 238.77876 167.51447 12.475308 0 1 300.36719 514.13281 z "
       id="path988"
       transform="scale(0.26458333)"
       inkscape:export-xdpi="600.00995"
       inkscape:export-ydpi="600.00995" />
  </g>
</svg>
