<?xml version="1.0" encoding="UTF-8" standalone="no"?>
<!-- Created with Inkscape (http://www.inkscape.org/) -->

<svg
   xmlns:dc="http://purl.org/dc/elements/1.1/"
   xmlns:cc="http://creativecommons.org/ns#"
   xmlns:rdf="http://www.w3.org/1999/02/22-rdf-syntax-ns#"
   xmlns:svg="http://www.w3.org/2000/svg"
   xmlns="http://www.w3.org/2000/svg"
   xmlns:sodipodi="http://sodipodi.sourceforge.net/DTD/sodipodi-0.dtd"
   xmlns:inkscape="http://www.inkscape.org/namespaces/inkscape"
   width="9cm"
   height="7cm"
   viewBox="0 0 90 69.999998"
   version="1.1"
   id="svg18149"
   inkscape:version="0.92.2 (5c3e80d, 2017-08-06)"
   sodipodi:docname="cabeza_ANOVA_Hurst_redes_mod.svg">
  <defs
     id="defs18143">
    <clipPath
       id="clipPath18716"
       clipPathUnits="userSpaceOnUse">
      <path
         inkscape:connector-curvature="0"
         id="path18714"
         d="m 423.301,1184.6 h 1244.4 v 737.199 h -1244.4 z" />
    </clipPath>
    <clipPath
       id="clipPath18776"
       clipPathUnits="userSpaceOnUse">
      <path
         inkscape:connector-curvature="0"
         id="path18774"
         d="m 423.301,357.699 h 1244.4 v 737.199 h -1244.4 z" />
    </clipPath>
    <clipPath
       id="clipPath18836"
       clipPathUnits="userSpaceOnUse">
      <path
         inkscape:connector-curvature="0"
         id="path18834"
         d="m 1757.3,1184.6 h 1244.3 v 737.199 H 1757.3 Z" />
    </clipPath>
    <clipPath
       id="clipPath18896"
       clipPathUnits="userSpaceOnUse">
      <path
         inkscape:connector-curvature="0"
         id="path18894"
         d="m 1757.3,357.699 h 1244.3 v 737.199 H 1757.3 Z" />
    </clipPath>
  </defs>
  <sodipodi:namedview
     id="base"
     pagecolor="#ffffff"
     bordercolor="#666666"
     borderopacity="1.0"
     inkscape:pageopacity="0.0"
     inkscape:pageshadow="2"
     inkscape:zoom="1.4"
     inkscape:cx="167.39665"
     inkscape:cy="188.56421"
     inkscape:document-units="cm"
     inkscape:current-layer="layer1"
     showgrid="false"
     units="cm"
     inkscape:window-width="1366"
     inkscape:window-height="705"
     inkscape:window-x="-8"
     inkscape:window-y="-8"
     inkscape:window-maximized="1" />
  <metadata
     id="metadata18146">
    <rdf:RDF>
      <cc:Work
         rdf:about="">
        <dc:format>image/svg+xml</dc:format>
        <dc:type
           rdf:resource="http://purl.org/dc/dcmitype/StillImage" />
        <dc:title></dc:title>
      </cc:Work>
    </rdf:RDF>
  </metadata>
  <g
     inkscape:label="Capa 1"
     inkscape:groupmode="layer"
     id="layer1"
     transform="translate(0,-227.00002)">
    <path
       inkscape:connector-curvature="0"
       id="path18706"
       style="fill:#ffffff;fill-opacity:1;fill-rule:nonzero;stroke:none;stroke-width:0.03098847"
       d="m 0,296.84002 h 100 v -70 H 0 Z" />
    <path
       inkscape:connector-curvature="0"
       id="path18708"
       style="fill:none;stroke:#ffffff;stroke-width:0.31346634;stroke-linecap:round;stroke-linejoin:round;stroke-miterlimit:10;stroke-dasharray:none;stroke-opacity:1"
       d="M 1.0111252,296.84326 H 90.697655 V 227.08674 H 1.0111252 Z" />
    <path
       inkscape:connector-curvature="0"
       id="path18718"
       style="fill:#ffffff;fill-opacity:1;fill-rule:nonzero;stroke:none;stroke-width:0.02929592"
       d="M 13.412117,262.13931 H 49.865031 V 240.54239 H 13.412117 Z" />
    <path
       inkscape:connector-curvature="0"
       id="path18720"
       style="fill:none;stroke:#0000ff;stroke-width:0.31346634;stroke-linecap:butt;stroke-linejoin:round;stroke-miterlimit:1;stroke-dasharray:none;stroke-opacity:1"
       d="m 20.068121,250.19537 23.143777,4.16588" />
    <path
       inkscape:connector-curvature="0"
       id="path18722"
       style="fill:none;stroke:#ff0000;stroke-width:0.31346634;stroke-linecap:butt;stroke-linejoin:round;stroke-miterlimit:1;stroke-dasharray:none;stroke-opacity:1"
       d="m 20.068121,252.24022 23.143777,-4.18053" />
    <path
       inkscape:connector-curvature="0"
       id="path18724"
       style="fill:none;stroke:#0000ff;stroke-width:0.31346634;stroke-linecap:butt;stroke-linejoin:round;stroke-miterlimit:1;stroke-dasharray:none;stroke-opacity:1"
       d="m 42.634768,251.17385 h 1.157189" />
    <path
       inkscape:connector-curvature="0"
       id="path18726"
       style="fill:none;stroke:#0000ff;stroke-width:0.31346634;stroke-linecap:butt;stroke-linejoin:round;stroke-miterlimit:1;stroke-dasharray:none;stroke-opacity:1"
       d="m 43.211898,251.17385 v 6.37479" />
    <path
       inkscape:connector-curvature="0"
       id="path18728"
       style="fill:none;stroke:#0000ff;stroke-width:0.31346634;stroke-linecap:butt;stroke-linejoin:round;stroke-miterlimit:1;stroke-dasharray:none;stroke-opacity:1"
       d="m 42.634768,257.54864 h 1.157189" />
    <path
       inkscape:connector-curvature="0"
       id="path18730"
       style="fill:none;stroke:#ff0000;stroke-width:0.31346634;stroke-linecap:butt;stroke-linejoin:round;stroke-miterlimit:1;stroke-dasharray:none;stroke-opacity:1"
       d="m 42.634768,243.87038 h 1.157189" />
    <path
       inkscape:connector-curvature="0"
       id="path18732"
       style="fill:none;stroke:#ff0000;stroke-width:0.31346634;stroke-linecap:butt;stroke-linejoin:round;stroke-miterlimit:1;stroke-dasharray:none;stroke-opacity:1"
       d="m 43.211898,243.87038 v 8.38156" />
    <path
       inkscape:connector-curvature="0"
       id="path18734"
       style="fill:none;stroke:#ff0000;stroke-width:0.31346634;stroke-linecap:butt;stroke-linejoin:round;stroke-miterlimit:1;stroke-dasharray:none;stroke-opacity:1"
       d="m 42.634768,252.25194 h 1.157189" />
    <path
       inkscape:connector-curvature="0"
       id="path18736"
       style="fill:none;stroke:#0000ff;stroke-width:0.31346634;stroke-linecap:butt;stroke-linejoin:round;stroke-miterlimit:1;stroke-dasharray:none;stroke-opacity:1"
       d="m 19.488033,245.52853 h 1.157188" />
    <path
       inkscape:connector-curvature="0"
       id="path18738"
       style="fill:none;stroke:#0000ff;stroke-width:0.31346634;stroke-linecap:butt;stroke-linejoin:round;stroke-miterlimit:1;stroke-dasharray:none;stroke-opacity:1"
       d="m 20.068121,245.52853 v 9.33661" />
    <path
       inkscape:connector-curvature="0"
       id="path18740"
       style="fill:none;stroke:#0000ff;stroke-width:0.31346634;stroke-linecap:butt;stroke-linejoin:round;stroke-miterlimit:1;stroke-dasharray:none;stroke-opacity:1"
       d="m 19.488033,254.86514 h 1.157188" />
    <path
       inkscape:connector-curvature="0"
       id="path18742"
       style="fill:none;stroke:#ff0000;stroke-width:0.31346634;stroke-linecap:butt;stroke-linejoin:round;stroke-miterlimit:1;stroke-dasharray:none;stroke-opacity:1"
       d="m 19.488033,247.58217 h 1.157188" />
    <path
       inkscape:connector-curvature="0"
       id="path18744"
       style="fill:none;stroke:#ff0000;stroke-width:0.31346634;stroke-linecap:butt;stroke-linejoin:round;stroke-miterlimit:1;stroke-dasharray:none;stroke-opacity:1"
       d="m 20.068121,247.58217 v 9.31903" />
    <path
       inkscape:connector-curvature="0"
       id="path18746"
       style="fill:none;stroke:#ff0000;stroke-width:0.31346634;stroke-linecap:butt;stroke-linejoin:round;stroke-miterlimit:1;stroke-dasharray:none;stroke-opacity:1"
       d="m 19.488033,256.9012 h 1.157188" />
    <g
       transform="matrix(0.2929592,0,0,-0.2929592,1.0111252,279.90982)"
       id="g18748">
      <text
         id="text18752"
         style="font-variant:normal;font-weight:normal;font-size:11px;font-family:Helvetica;-inkscape-font-specification:Helvetica;writing-mode:lr-tb;fill:#333333;fill-opacity:1;fill-rule:nonzero;stroke:none"
         transform="matrix(1,0,0,-1,46.2129,126.35)">
        <tspan
           id="tspan18750"
           sodipodi:role="line"
           y="0"
           x="0 6.7210002 12.837 18.952999 25.377001 32.714001 0 6.7210002 12.837 18.952999 25.377001 32.714001 0 6.7210002 12.837 18.952999 25.377001 32.714001 0 6.7210002 12.837 18.952999 25.377001 32.714001">Fp1−P3Fp1−P3Fp1−P3Fp1−P3</tspan>
      </text>
    </g>
    <path
       inkscape:connector-curvature="0"
       id="path18754"
       style="fill:#0000ff;fill-opacity:1;fill-rule:nonzero;stroke:none;stroke-width:0.02929592"
       d="m 43.346659,254.36125 c 0,-0.0744 -0.06035,-0.13476 -0.134761,-0.13476 -0.07441,0 -0.134761,0.0603 -0.134761,0.13476 0,0.0744 0.06035,0.13476 0.134761,0.13476 0.07441,0 0.134761,-0.0603 0.134761,-0.13476" />
    <path
       inkscape:connector-curvature="0"
       id="path18756"
       style="fill:none;stroke:#0000ff;stroke-width:0.20800103;stroke-linecap:round;stroke-linejoin:round;stroke-miterlimit:10;stroke-dasharray:none;stroke-opacity:1"
       d="m 43.346659,254.36125 c 0,-0.0744 -0.06035,-0.13476 -0.134761,-0.13476 -0.07441,0 -0.134761,0.0603 -0.134761,0.13476 0,0.0744 0.06035,0.13476 0.134761,0.13476 0.07441,0 0.134761,-0.0603 0.134761,-0.13476" />
    <path
       inkscape:connector-curvature="0"
       id="path18758"
       style="fill:#ff0000;fill-opacity:1;fill-rule:nonzero;stroke:none;stroke-width:0.02929592"
       d="m 43.346659,248.05969 c 0,-0.0744 -0.06035,-0.13476 -0.134761,-0.13476 -0.07441,0 -0.134761,0.0603 -0.134761,0.13476 0,0.0744 0.06035,0.13477 0.134761,0.13477 0.07441,0 0.134761,-0.0603 0.134761,-0.13477" />
    <path
       inkscape:connector-curvature="0"
       id="path18760"
       style="fill:none;stroke:#ff0000;stroke-width:0.20800103;stroke-linecap:round;stroke-linejoin:round;stroke-miterlimit:10;stroke-dasharray:none;stroke-opacity:1"
       d="m 43.346659,248.05969 c 0,-0.0744 -0.06035,-0.13476 -0.134761,-0.13476 -0.07441,0 -0.134761,0.0603 -0.134761,0.13476 0,0.0744 0.06035,0.13477 0.134761,0.13477 0.07441,0 0.134761,-0.0603 0.134761,-0.13477" />
    <path
       inkscape:connector-curvature="0"
       id="path18762"
       style="fill:#0000ff;fill-opacity:1;fill-rule:nonzero;stroke:none;stroke-width:0.02929592"
       d="m 20.202941,250.19537 c 0,-0.0744 -0.06044,-0.13476 -0.13482,-0.13476 -0.07438,0 -0.13482,0.0603 -0.13482,0.13476 0,0.0744 0.06044,0.13476 0.13482,0.13476 0.07438,0 0.13482,-0.0603 0.13482,-0.13476" />
    <path
       inkscape:connector-curvature="0"
       id="path18764"
       style="fill:none;stroke:#0000ff;stroke-width:0.20800103;stroke-linecap:round;stroke-linejoin:round;stroke-miterlimit:10;stroke-dasharray:none;stroke-opacity:1"
       d="m 20.202941,250.19537 c 0,-0.0744 -0.06044,-0.13476 -0.13482,-0.13476 -0.07438,0 -0.13482,0.0603 -0.13482,0.13476 0,0.0744 0.06044,0.13476 0.13482,0.13476 0.07438,0 0.13482,-0.0603 0.13482,-0.13476" />
    <path
       inkscape:connector-curvature="0"
       id="path18766"
       style="fill:#ff0000;fill-opacity:1;fill-rule:nonzero;stroke:none;stroke-width:0.02929592"
       d="m 20.202941,252.24022 c 0,-0.0744 -0.06044,-0.13476 -0.13482,-0.13476 -0.07438,0 -0.13482,0.0603 -0.13482,0.13476 0,0.0744 0.06044,0.13476 0.13482,0.13476 0.07438,0 0.13482,-0.0603 0.13482,-0.13476" />
    <path
       inkscape:connector-curvature="0"
       id="path18768"
       style="fill:none;stroke:#ff0000;stroke-width:0.20800103;stroke-linecap:round;stroke-linejoin:round;stroke-miterlimit:10;stroke-dasharray:none;stroke-opacity:1"
       d="m 20.202941,252.24022 c 0,-0.0744 -0.06044,-0.13476 -0.13482,-0.13476 -0.07438,0 -0.13482,0.0603 -0.13482,0.13476 0,0.0744 0.06044,0.13476 0.13482,0.13476 0.07438,0 0.13482,-0.0603 0.13482,-0.13476" />
    <path
       inkscape:connector-curvature="0"
       id="path18778"
       style="fill:#ffffff;fill-opacity:1;fill-rule:nonzero;stroke:none;stroke-width:0.02929592"
       d="M 13.412117,286.36414 H 49.865031 V 264.76722 H 13.412117 Z" />
    <path
       inkscape:connector-curvature="0"
       id="path18780"
       style="fill:none;stroke:#0000ff;stroke-width:0.31346634;stroke-linecap:butt;stroke-linejoin:round;stroke-miterlimit:1;stroke-dasharray:none;stroke-opacity:1"
       d="m 20.068121,274.70137 23.143777,4.93637" />
    <path
       inkscape:connector-curvature="0"
       id="path18782"
       style="fill:none;stroke:#ff0000;stroke-width:0.31346634;stroke-linecap:butt;stroke-linejoin:round;stroke-miterlimit:1;stroke-dasharray:none;stroke-opacity:1"
       d="m 20.068121,280.84769 23.143777,-0.9433" />
    <path
       inkscape:connector-curvature="0"
       id="path18784"
       style="fill:none;stroke:#0000ff;stroke-width:0.31346634;stroke-linecap:butt;stroke-linejoin:round;stroke-miterlimit:1;stroke-dasharray:none;stroke-opacity:1"
       d="m 42.634768,276.02268 h 1.157189" />
    <path
       inkscape:connector-curvature="0"
       id="path18786"
       style="fill:none;stroke:#0000ff;stroke-width:0.31346634;stroke-linecap:butt;stroke-linejoin:round;stroke-miterlimit:1;stroke-dasharray:none;stroke-opacity:1"
       d="m 43.211898,276.02268 v 7.2331" />
    <path
       inkscape:connector-curvature="0"
       id="path18788"
       style="fill:none;stroke:#0000ff;stroke-width:0.31346634;stroke-linecap:butt;stroke-linejoin:round;stroke-miterlimit:1;stroke-dasharray:none;stroke-opacity:1"
       d="m 42.634768,283.25578 h 1.157189" />
    <path
       inkscape:connector-curvature="0"
       id="path18790"
       style="fill:none;stroke:#ff0000;stroke-width:0.31346634;stroke-linecap:butt;stroke-linejoin:round;stroke-miterlimit:1;stroke-dasharray:none;stroke-opacity:1"
       d="m 42.634768,276.25122 h 1.157189" />
    <path
       inkscape:connector-curvature="0"
       id="path18792"
       style="fill:none;stroke:#ff0000;stroke-width:0.31346634;stroke-linecap:butt;stroke-linejoin:round;stroke-miterlimit:1;stroke-dasharray:none;stroke-opacity:1"
       d="m 43.211898,276.25122 v 7.30634" />
    <path
       inkscape:connector-curvature="0"
       id="path18794"
       style="fill:none;stroke:#ff0000;stroke-width:0.31346634;stroke-linecap:butt;stroke-linejoin:round;stroke-miterlimit:1;stroke-dasharray:none;stroke-opacity:1"
       d="m 42.634768,283.55756 h 1.157189" />
    <path
       inkscape:connector-curvature="0"
       id="path18796"
       style="fill:none;stroke:#0000ff;stroke-width:0.31346634;stroke-linecap:butt;stroke-linejoin:round;stroke-miterlimit:1;stroke-dasharray:none;stroke-opacity:1"
       d="m 19.488033,270.69082 h 1.157188" />
    <path
       inkscape:connector-curvature="0"
       id="path18798"
       style="fill:none;stroke:#0000ff;stroke-width:0.31346634;stroke-linecap:butt;stroke-linejoin:round;stroke-miterlimit:1;stroke-dasharray:none;stroke-opacity:1"
       d="m 20.068121,270.69082 v 8.02125" />
    <path
       inkscape:connector-curvature="0"
       id="path18800"
       style="fill:none;stroke:#0000ff;stroke-width:0.31346634;stroke-linecap:butt;stroke-linejoin:round;stroke-miterlimit:1;stroke-dasharray:none;stroke-opacity:1"
       d="m 19.488033,278.71207 h 1.157188" />
    <path
       inkscape:connector-curvature="0"
       id="path18802"
       style="fill:none;stroke:#ff0000;stroke-width:0.31346634;stroke-linecap:butt;stroke-linejoin:round;stroke-miterlimit:1;stroke-dasharray:none;stroke-opacity:1"
       d="m 19.488033,276.31564 h 1.157188" />
    <path
       inkscape:connector-curvature="0"
       id="path18804"
       style="fill:none;stroke:#ff0000;stroke-width:0.31346634;stroke-linecap:butt;stroke-linejoin:round;stroke-miterlimit:1;stroke-dasharray:none;stroke-opacity:1"
       d="m 20.068121,276.31564 v 9.06709" />
    <path
       inkscape:connector-curvature="0"
       id="path18806"
       style="fill:none;stroke:#ff0000;stroke-width:0.31346634;stroke-linecap:butt;stroke-linejoin:round;stroke-miterlimit:1;stroke-dasharray:none;stroke-opacity:1"
       d="m 19.488033,285.38273 h 1.157188" />
    <g
       transform="matrix(0.2929592,0,0,-0.2929592,1.0111252,280.96816)"
       id="g18808">
      <text
         id="text18812"
         style="font-variant:normal;font-weight:normal;font-size:11px;font-family:Helvetica;-inkscape-font-specification:Helvetica;writing-mode:lr-tb;fill:#333333;fill-opacity:1;fill-rule:nonzero;stroke:none"
         transform="matrix(1,0,0,-1,47.7109,43.6699)">
        <tspan
           id="tspan18810"
           sodipodi:role="line"
           y="0"
           x="0 8.5579996 14.674 21.098 28.434999 34.550999 40.974998 47.695999 0 8.5579996 14.674 21.098 28.434999 34.550999 40.974998 47.695999 0 8.5579996 14.674 21.098 28.434999 34.550999 40.974998 47.695999 0 8.5579996 14.674 21.098 28.434999 34.550999 40.974998 47.695999">O1−P3−T3O1−P3−T3O1−P3−T3O1−P3−T3</tspan>
      </text>
    </g>
    <path
       inkscape:connector-curvature="0"
       id="path18814"
       style="fill:#0000ff;fill-opacity:1;fill-rule:nonzero;stroke:none;stroke-width:0.02929592"
       d="m 43.346659,279.63774 c 0,-0.0744 -0.06035,-0.13468 -0.134761,-0.13468 -0.07441,0 -0.134761,0.0603 -0.134761,0.13468 0,0.0744 0.06035,0.13482 0.134761,0.13482 0.07441,0 0.134761,-0.0604 0.134761,-0.13482" />
    <path
       inkscape:connector-curvature="0"
       id="path18816"
       style="fill:none;stroke:#0000ff;stroke-width:0.20800103;stroke-linecap:round;stroke-linejoin:round;stroke-miterlimit:10;stroke-dasharray:none;stroke-opacity:1"
       d="m 43.346659,279.63774 c 0,-0.0744 -0.06035,-0.13468 -0.134761,-0.13468 -0.07441,0 -0.134761,0.0603 -0.134761,0.13468 0,0.0744 0.06035,0.13482 0.134761,0.13482 0.07441,0 0.134761,-0.0604 0.134761,-0.13482" />
    <path
       inkscape:connector-curvature="0"
       id="path18818"
       style="fill:#ff0000;fill-opacity:1;fill-rule:nonzero;stroke:none;stroke-width:0.02929592"
       d="m 43.346659,279.90439 c 0,-0.0744 -0.06035,-0.13482 -0.134761,-0.13482 -0.07441,0 -0.134761,0.0604 -0.134761,0.13482 0,0.0744 0.06035,0.13467 0.134761,0.13467 0.07441,0 0.134761,-0.0603 0.134761,-0.13467" />
    <path
       inkscape:connector-curvature="0"
       id="path18820"
       style="fill:none;stroke:#ff0000;stroke-width:0.20800103;stroke-linecap:round;stroke-linejoin:round;stroke-miterlimit:10;stroke-dasharray:none;stroke-opacity:1"
       d="m 43.346659,279.90439 c 0,-0.0744 -0.06035,-0.13482 -0.134761,-0.13482 -0.07441,0 -0.134761,0.0604 -0.134761,0.13482 0,0.0744 0.06035,0.13467 0.134761,0.13467 0.07441,0 0.134761,-0.0603 0.134761,-0.13467" />
    <path
       inkscape:connector-curvature="0"
       id="path18822"
       style="fill:#0000ff;fill-opacity:1;fill-rule:nonzero;stroke:none;stroke-width:0.02929592"
       d="m 20.202941,274.70137 c 0,-0.0744 -0.06044,-0.13467 -0.13482,-0.13467 -0.07438,0 -0.13482,0.0603 -0.13482,0.13467 0,0.0744 0.06044,0.13482 0.13482,0.13482 0.07438,0 0.13482,-0.0604 0.13482,-0.13482" />
    <path
       inkscape:connector-curvature="0"
       id="path18824"
       style="fill:none;stroke:#0000ff;stroke-width:0.20800103;stroke-linecap:round;stroke-linejoin:round;stroke-miterlimit:10;stroke-dasharray:none;stroke-opacity:1"
       d="m 20.202941,274.70137 c 0,-0.0744 -0.06044,-0.13467 -0.13482,-0.13467 -0.07438,0 -0.13482,0.0603 -0.13482,0.13467 0,0.0744 0.06044,0.13482 0.13482,0.13482 0.07438,0 0.13482,-0.0604 0.13482,-0.13482" />
    <path
       inkscape:connector-curvature="0"
       id="path18826"
       style="fill:#ff0000;fill-opacity:1;fill-rule:nonzero;stroke:none;stroke-width:0.02929592"
       d="m 20.202941,280.84769 c 0,-0.0744 -0.06044,-0.13482 -0.13482,-0.13482 -0.07438,0 -0.13482,0.0604 -0.13482,0.13482 0,0.0744 0.06044,0.13482 0.13482,0.13482 0.07438,0 0.13482,-0.0604 0.13482,-0.13482" />
    <path
       inkscape:connector-curvature="0"
       id="path18828"
       style="fill:none;stroke:#ff0000;stroke-width:0.20800103;stroke-linecap:round;stroke-linejoin:round;stroke-miterlimit:10;stroke-dasharray:none;stroke-opacity:1"
       d="m 20.202941,280.84769 c 0,-0.0744 -0.06044,-0.13482 -0.13482,-0.13482 -0.07438,0 -0.13482,0.0604 -0.13482,0.13482 0,0.0744 0.06044,0.13482 0.13482,0.13482 0.07438,0 0.13482,-0.0604 0.13482,-0.13482" />
    <g
       id="g18830"
       transform="matrix(0.02929592,0,0,-0.02929592,1.0111252,296.84326)">
      <path
         d="m 1757.3,1184.6 h 1244.3 v 737.199 H 1757.3 Z"
         style="fill:#ffffff;fill-opacity:1;fill-rule:nonzero;stroke:none"
         id="path18838"
         inkscape:connector-curvature="0" />
      <path
         d="m 1984.5,1554.3 790,-113"
         style="fill:none;stroke:#0000ff;stroke-width:10.69999981;stroke-linecap:butt;stroke-linejoin:round;stroke-miterlimit:1;stroke-dasharray:none;stroke-opacity:1"
         id="path18840"
         inkscape:connector-curvature="0" />
      <path
         d="m 1984.5,1529.6 790,181.1"
         style="fill:none;stroke:#ff0000;stroke-width:10.69999981;stroke-linecap:butt;stroke-linejoin:round;stroke-miterlimit:1;stroke-dasharray:none;stroke-opacity:1"
         id="path18842"
         inkscape:connector-curvature="0" />
      <path
         d="m 2754.8,1579.1 h 39.5"
         style="fill:none;stroke:#0000ff;stroke-width:10.69999981;stroke-linecap:butt;stroke-linejoin:round;stroke-miterlimit:1;stroke-dasharray:none;stroke-opacity:1"
         id="path18844"
         inkscape:connector-curvature="0" />
      <path
         d="M 2774.5,1579.1 V 1303.4"
         style="fill:none;stroke:#0000ff;stroke-width:10.69999981;stroke-linecap:butt;stroke-linejoin:round;stroke-miterlimit:1;stroke-dasharray:none;stroke-opacity:1"
         id="path18846"
         inkscape:connector-curvature="0" />
      <path
         d="m 2754.8,1303.4 h 39.5"
         style="fill:none;stroke:#0000ff;stroke-width:10.69999981;stroke-linecap:butt;stroke-linejoin:round;stroke-miterlimit:1;stroke-dasharray:none;stroke-opacity:1"
         id="path18848"
         inkscape:connector-curvature="0" />
      <path
         d="m 2754.8,1888.2 h 39.5"
         style="fill:none;stroke:#ff0000;stroke-width:10.69999981;stroke-linecap:butt;stroke-linejoin:round;stroke-miterlimit:1;stroke-dasharray:none;stroke-opacity:1"
         id="path18850"
         inkscape:connector-curvature="0" />
      <path
         d="M 2774.5,1888.2 V 1533.1"
         style="fill:none;stroke:#ff0000;stroke-width:10.69999981;stroke-linecap:butt;stroke-linejoin:round;stroke-miterlimit:1;stroke-dasharray:none;stroke-opacity:1"
         id="path18852"
         inkscape:connector-curvature="0" />
      <path
         d="m 2754.8,1533.1 h 39.5"
         style="fill:none;stroke:#ff0000;stroke-width:10.69999981;stroke-linecap:butt;stroke-linejoin:round;stroke-miterlimit:1;stroke-dasharray:none;stroke-opacity:1"
         id="path18854"
         inkscape:connector-curvature="0" />
      <path
         d="m 1964.7,1710.9 h 39.5"
         style="fill:none;stroke:#0000ff;stroke-width:10.69999981;stroke-linecap:butt;stroke-linejoin:round;stroke-miterlimit:1;stroke-dasharray:none;stroke-opacity:1"
         id="path18856"
         inkscape:connector-curvature="0" />
      <path
         d="M 1984.5,1710.9 V 1397.6"
         style="fill:none;stroke:#0000ff;stroke-width:10.69999981;stroke-linecap:butt;stroke-linejoin:round;stroke-miterlimit:1;stroke-dasharray:none;stroke-opacity:1"
         id="path18858"
         inkscape:connector-curvature="0" />
      <path
         d="m 1964.7,1397.6 h 39.5"
         style="fill:none;stroke:#0000ff;stroke-width:10.69999981;stroke-linecap:butt;stroke-linejoin:round;stroke-miterlimit:1;stroke-dasharray:none;stroke-opacity:1"
         id="path18860"
         inkscape:connector-curvature="0" />
      <path
         d="m 1964.7,1690 h 39.5"
         style="fill:none;stroke:#ff0000;stroke-width:10.69999981;stroke-linecap:butt;stroke-linejoin:round;stroke-miterlimit:1;stroke-dasharray:none;stroke-opacity:1"
         id="path18862"
         inkscape:connector-curvature="0" />
      <path
         d="M 1984.5,1690 V 1369.3"
         style="fill:none;stroke:#ff0000;stroke-width:10.69999981;stroke-linecap:butt;stroke-linejoin:round;stroke-miterlimit:1;stroke-dasharray:none;stroke-opacity:1"
         id="path18864"
         inkscape:connector-curvature="0" />
      <path
         d="m 1964.7,1369.3 h 39.5"
         style="fill:none;stroke:#ff0000;stroke-width:10.69999981;stroke-linecap:butt;stroke-linejoin:round;stroke-miterlimit:1;stroke-dasharray:none;stroke-opacity:1"
         id="path18866"
         inkscape:connector-curvature="0" />
      <g
         id="g18868"
         transform="matrix(10,0,0,10,0,559.94712)">
        <text
           transform="matrix(1,0,0,-1,179.613,126.35)"
           style="font-variant:normal;font-weight:normal;font-size:11px;font-family:Helvetica;-inkscape-font-specification:Helvetica;writing-mode:lr-tb;fill:#333333;fill-opacity:1;fill-rule:nonzero;stroke:none"
           id="text18872">
          <tspan
             x="0 6.7210002 12.837 18.952999 25.377001 32.714001 0 6.7210002 12.837 18.952999 25.377001 32.714001 0 6.7210002 12.837 18.952999 25.377001 32.714001 0 6.7210002 12.837 18.952999 25.377001 32.714001"
             y="0"
             sodipodi:role="line"
             id="tspan18870">Fp2−P4Fp2−P4Fp2−P4Fp2−P4</tspan>
        </text>
      </g>
      <path
         d="m 2779.1,1441.3 c 0,2.54 -2.06,4.6 -4.6,4.6 -2.54,0 -4.6,-2.06 -4.6,-4.6 0,-2.54 2.06,-4.6 4.6,-4.6 2.54,0 4.6,2.06 4.6,4.6"
         style="fill:#0000ff;fill-opacity:1;fill-rule:nonzero;stroke:none"
         id="path18874"
         inkscape:connector-curvature="0" />
      <path
         d="m 2779.1,1441.3 c 0,2.54 -2.06,4.6 -4.6,4.6 -2.54,0 -4.6,-2.06 -4.6,-4.6 0,-2.54 2.06,-4.6 4.6,-4.6 2.54,0 4.6,2.06 4.6,4.6"
         style="fill:none;stroke:#0000ff;stroke-width:7.0999999;stroke-linecap:round;stroke-linejoin:round;stroke-miterlimit:10;stroke-dasharray:none;stroke-opacity:1"
         id="path18876"
         inkscape:connector-curvature="0" />
      <path
         d="m 2779.1,1710.7 c 0,2.54 -2.06,4.6 -4.6,4.6 -2.54,0 -4.6,-2.06 -4.6,-4.6 0,-2.54 2.06,-4.6 4.6,-4.6 2.54,0 4.6,2.06 4.6,4.6"
         style="fill:#ff0000;fill-opacity:1;fill-rule:nonzero;stroke:none"
         id="path18878"
         inkscape:connector-curvature="0" />
      <path
         d="m 2779.1,1710.7 c 0,2.54 -2.06,4.6 -4.6,4.6 -2.54,0 -4.6,-2.06 -4.6,-4.6 0,-2.54 2.06,-4.6 4.6,-4.6 2.54,0 4.6,2.06 4.6,4.6"
         style="fill:none;stroke:#ff0000;stroke-width:7.0999999;stroke-linecap:round;stroke-linejoin:round;stroke-miterlimit:10;stroke-dasharray:none;stroke-opacity:1"
         id="path18880"
         inkscape:connector-curvature="0" />
      <path
         d="m 1989.1,1554.3 c 0,2.54 -2.06,4.6 -4.6,4.6 -2.54,0 -4.6,-2.06 -4.6,-4.6 0,-2.54 2.06,-4.6 4.6,-4.6 2.54,0 4.6,2.06 4.6,4.6"
         style="fill:#0000ff;fill-opacity:1;fill-rule:nonzero;stroke:none"
         id="path18882"
         inkscape:connector-curvature="0" />
      <path
         d="m 1989.1,1554.3 c 0,2.54 -2.06,4.6 -4.6,4.6 -2.54,0 -4.6,-2.06 -4.6,-4.6 0,-2.54 2.06,-4.6 4.6,-4.6 2.54,0 4.6,2.06 4.6,4.6"
         style="fill:none;stroke:#0000ff;stroke-width:7.0999999;stroke-linecap:round;stroke-linejoin:round;stroke-miterlimit:10;stroke-dasharray:none;stroke-opacity:1"
         id="path18884"
         inkscape:connector-curvature="0" />
      <path
         d="m 1989.1,1529.6 c 0,2.54 -2.06,4.6 -4.6,4.6 -2.54,0 -4.6,-2.06 -4.6,-4.6 0,-2.54 2.06,-4.6 4.6,-4.6 2.54,0 4.6,2.06 4.6,4.6"
         style="fill:#ff0000;fill-opacity:1;fill-rule:nonzero;stroke:none"
         id="path18886"
         inkscape:connector-curvature="0" />
      <path
         d="m 1989.1,1529.6 c 0,2.54 -2.06,4.6 -4.6,4.6 -2.54,0 -4.6,-2.06 -4.6,-4.6 0,-2.54 2.06,-4.6 4.6,-4.6 2.54,0 4.6,2.06 4.6,4.6"
         style="fill:none;stroke:#ff0000;stroke-width:7.0999999;stroke-linecap:round;stroke-linejoin:round;stroke-miterlimit:10;stroke-dasharray:none;stroke-opacity:1"
         id="path18888"
         inkscape:connector-curvature="0" />
    </g>
    <path
       inkscape:connector-curvature="0"
       id="path18898"
       style="fill:#ffffff;fill-opacity:1;fill-rule:nonzero;stroke:none;stroke-width:0.02929592"
       d="M 52.492845,286.36414 H 88.945759 V 264.76722 H 52.492845 Z" />
    <path
       inkscape:connector-curvature="0"
       id="path18900"
       style="fill:none;stroke:#0000ff;stroke-width:0.31346634;stroke-linecap:butt;stroke-linejoin:round;stroke-miterlimit:1;stroke-dasharray:none;stroke-opacity:1"
       d="m 59.148878,277.10663 23.143777,2.14144" />
    <path
       inkscape:connector-curvature="0"
       id="path18902"
       style="fill:none;stroke:#ff0000;stroke-width:0.31346634;stroke-linecap:butt;stroke-linejoin:round;stroke-miterlimit:1;stroke-dasharray:none;stroke-opacity:1"
       d="m 59.148878,277.16522 23.143777,-1.32415" />
    <path
       inkscape:connector-curvature="0"
       id="path18904"
       style="fill:none;stroke:#0000ff;stroke-width:0.31346634;stroke-linecap:butt;stroke-linejoin:round;stroke-miterlimit:1;stroke-dasharray:none;stroke-opacity:1"
       d="m 81.715526,275.08222 h 1.157188" />
    <path
       inkscape:connector-curvature="0"
       id="path18906"
       style="fill:none;stroke:#0000ff;stroke-width:0.31346634;stroke-linecap:butt;stroke-linejoin:round;stroke-miterlimit:1;stroke-dasharray:none;stroke-opacity:1"
       d="m 82.292655,275.08222 v 8.32886" />
    <path
       inkscape:connector-curvature="0"
       id="path18908"
       style="fill:none;stroke:#0000ff;stroke-width:0.31346634;stroke-linecap:butt;stroke-linejoin:round;stroke-miterlimit:1;stroke-dasharray:none;stroke-opacity:1"
       d="m 81.715526,283.41108 h 1.157188" />
    <path
       inkscape:connector-curvature="0"
       id="path18910"
       style="fill:none;stroke:#ff0000;stroke-width:0.31346634;stroke-linecap:butt;stroke-linejoin:round;stroke-miterlimit:1;stroke-dasharray:none;stroke-opacity:1"
       d="m 81.715526,271.87432 h 1.157188" />
    <path
       inkscape:connector-curvature="0"
       id="path18912"
       style="fill:none;stroke:#ff0000;stroke-width:0.31346634;stroke-linecap:butt;stroke-linejoin:round;stroke-miterlimit:1;stroke-dasharray:none;stroke-opacity:1"
       d="m 82.292655,271.87432 v 7.93336" />
    <path
       inkscape:connector-curvature="0"
       id="path18914"
       style="fill:none;stroke:#ff0000;stroke-width:0.31346634;stroke-linecap:butt;stroke-linejoin:round;stroke-miterlimit:1;stroke-dasharray:none;stroke-opacity:1"
       d="m 81.715526,279.80768 h 1.157188" />
    <path
       inkscape:connector-curvature="0"
       id="path18916"
       style="fill:none;stroke:#0000ff;stroke-width:0.31346634;stroke-linecap:butt;stroke-linejoin:round;stroke-miterlimit:1;stroke-dasharray:none;stroke-opacity:1"
       d="m 58.568819,273.47976 h 1.157189" />
    <path
       inkscape:connector-curvature="0"
       id="path18918"
       style="fill:none;stroke:#0000ff;stroke-width:0.31346634;stroke-linecap:butt;stroke-linejoin:round;stroke-miterlimit:1;stroke-dasharray:none;stroke-opacity:1"
       d="m 59.148878,273.47976 v 7.25074" />
    <path
       inkscape:connector-curvature="0"
       id="path18920"
       style="fill:none;stroke:#0000ff;stroke-width:0.31346634;stroke-linecap:butt;stroke-linejoin:round;stroke-miterlimit:1;stroke-dasharray:none;stroke-opacity:1"
       d="m 58.568819,280.7305 h 1.157189" />
    <path
       inkscape:connector-curvature="0"
       id="path18922"
       style="fill:none;stroke:#ff0000;stroke-width:0.31346634;stroke-linecap:butt;stroke-linejoin:round;stroke-miterlimit:1;stroke-dasharray:none;stroke-opacity:1"
       d="m 58.568819,272.25232 h 1.157189" />
    <path
       inkscape:connector-curvature="0"
       id="path18924"
       style="fill:none;stroke:#ff0000;stroke-width:0.31346634;stroke-linecap:butt;stroke-linejoin:round;stroke-miterlimit:1;stroke-dasharray:none;stroke-opacity:1"
       d="m 59.148878,272.25232 v 9.8258" />
    <path
       inkscape:connector-curvature="0"
       id="path18926"
       style="fill:none;stroke:#ff0000;stroke-width:0.31346634;stroke-linecap:butt;stroke-linejoin:round;stroke-miterlimit:1;stroke-dasharray:none;stroke-opacity:1"
       d="m 58.568819,282.07812 h 1.157189" />
    <g
       transform="matrix(0.2929592,0,0,-0.2929592,1.0111252,280.96816)"
       id="g18928">
      <text
         id="text18932"
         style="font-variant:normal;font-weight:normal;font-size:11px;font-family:Helvetica;-inkscape-font-specification:Helvetica;writing-mode:lr-tb;fill:#333333;fill-opacity:1;fill-rule:nonzero;stroke:none"
         transform="matrix(1,0,0,-1,181.111,43.6699)">
        <tspan
           id="tspan18930"
           sodipodi:role="line"
           y="0"
           x="0 8.5579996 14.674 21.098 28.434999 34.550999 40.974998 47.695999 0 8.5579996 14.674 21.098 28.434999 34.550999 40.974998 47.695999 0 8.5579996 14.674 21.098 28.434999 34.550999 40.974998 47.695999 0 8.5579996 14.674 21.098 28.434999 34.550999 40.974998 47.695999">O2−P4−T4O2−P4−T4O2−P4−T4O2−P4−T4</tspan>
      </text>
    </g>
    <path
       inkscape:connector-curvature="0"
       id="path18934"
       style="fill:#0000ff;fill-opacity:1;fill-rule:nonzero;stroke:none;stroke-width:0.02929592"
       d="m 82.427416,279.24807 c 0,-0.0744 -0.06035,-0.13467 -0.134761,-0.13467 -0.07441,0 -0.134761,0.0603 -0.134761,0.13467 0,0.0744 0.06035,0.13482 0.134761,0.13482 0.07441,0 0.134761,-0.0604 0.134761,-0.13482" />
    <path
       inkscape:connector-curvature="0"
       id="path18936"
       style="fill:none;stroke:#0000ff;stroke-width:0.20800103;stroke-linecap:round;stroke-linejoin:round;stroke-miterlimit:10;stroke-dasharray:none;stroke-opacity:1"
       d="m 82.427416,279.24807 c 0,-0.0744 -0.06035,-0.13467 -0.134761,-0.13467 -0.07441,0 -0.134761,0.0603 -0.134761,0.13467 0,0.0744 0.06035,0.13482 0.134761,0.13482 0.07441,0 0.134761,-0.0604 0.134761,-0.13482" />
    <path
       inkscape:connector-curvature="0"
       id="path18938"
       style="fill:#ff0000;fill-opacity:1;fill-rule:nonzero;stroke:none;stroke-width:0.02929592"
       d="m 82.427416,275.84107 c 0,-0.0744 -0.06035,-0.13482 -0.134761,-0.13482 -0.07441,0 -0.134761,0.0604 -0.134761,0.13482 0,0.0744 0.06035,0.13468 0.134761,0.13468 0.07441,0 0.134761,-0.0603 0.134761,-0.13468" />
    <path
       inkscape:connector-curvature="0"
       id="path18940"
       style="fill:none;stroke:#ff0000;stroke-width:0.20800103;stroke-linecap:round;stroke-linejoin:round;stroke-miterlimit:10;stroke-dasharray:none;stroke-opacity:1"
       d="m 82.427416,275.84107 c 0,-0.0744 -0.06035,-0.13482 -0.134761,-0.13482 -0.07441,0 -0.134761,0.0604 -0.134761,0.13482 0,0.0744 0.06035,0.13468 0.134761,0.13468 0.07441,0 0.134761,-0.0603 0.134761,-0.13468" />
    <path
       inkscape:connector-curvature="0"
       id="path18942"
       style="fill:#0000ff;fill-opacity:1;fill-rule:nonzero;stroke:none;stroke-width:0.02929592"
       d="m 59.28364,277.10663 c 0,-0.0744 -0.06035,-0.13482 -0.134762,-0.13482 -0.07441,0 -0.134761,0.0604 -0.134761,0.13482 0,0.0744 0.06035,0.13467 0.134761,0.13467 0.07441,0 0.134762,-0.0603 0.134762,-0.13467" />
    <path
       inkscape:connector-curvature="0"
       id="path18944"
       style="fill:none;stroke:#0000ff;stroke-width:0.20800103;stroke-linecap:round;stroke-linejoin:round;stroke-miterlimit:10;stroke-dasharray:none;stroke-opacity:1"
       d="m 59.28364,277.10663 c 0,-0.0744 -0.06035,-0.13482 -0.134762,-0.13482 -0.07441,0 -0.134761,0.0604 -0.134761,0.13482 0,0.0744 0.06035,0.13467 0.134761,0.13467 0.07441,0 0.134762,-0.0603 0.134762,-0.13467" />
    <path
       inkscape:connector-curvature="0"
       id="path18946"
       style="fill:#ff0000;fill-opacity:1;fill-rule:nonzero;stroke:none;stroke-width:0.02929592"
       d="m 59.28364,277.16522 c 0,-0.0744 -0.06035,-0.13482 -0.134762,-0.13482 -0.07441,0 -0.134761,0.0604 -0.134761,0.13482 0,0.0744 0.06035,0.13467 0.134761,0.13467 0.07441,0 0.134762,-0.0603 0.134762,-0.13467" />
    <path
       inkscape:connector-curvature="0"
       id="path18948"
       style="fill:none;stroke:#ff0000;stroke-width:0.20800103;stroke-linecap:round;stroke-linejoin:round;stroke-miterlimit:10;stroke-dasharray:none;stroke-opacity:1"
       d="m 59.28364,277.16522 c 0,-0.0744 -0.06035,-0.13482 -0.134762,-0.13482 -0.07441,0 -0.134761,0.0604 -0.134761,0.13482 0,0.0744 0.06035,0.13467 0.134761,0.13467 0.07441,0 0.134762,-0.0603 0.134762,-0.13467" />
    <path
       inkscape:connector-curvature="0"
       id="path18950"
       style="fill:none;stroke:#000000;stroke-width:0.31346634;stroke-linecap:butt;stroke-linejoin:round;stroke-miterlimit:10;stroke-dasharray:none;stroke-opacity:1"
       d="M 13.412117,286.36414 H 49.867931" />
    <path
       inkscape:connector-curvature="0"
       id="path18952"
       style="fill:none;stroke:#333333;stroke-width:0.31346634;stroke-linecap:butt;stroke-linejoin:round;stroke-miterlimit:10;stroke-dasharray:none;stroke-opacity:1"
       d="m 20.068121,287.24003 v -0.87589" />
    <path
       inkscape:connector-curvature="0"
       id="path18954"
       style="fill:none;stroke:#333333;stroke-width:0.31346634;stroke-linecap:butt;stroke-linejoin:round;stroke-miterlimit:10;stroke-dasharray:none;stroke-opacity:1"
       d="m 43.211898,287.24003 v -0.87589" />
    <g
       transform="matrix(0.2929592,0,0,-0.2929592,1.0111252,296.84326)"
       id="g18956">
      <text
         id="text18960"
         style="font-variant:normal;font-weight:normal;font-size:10px;font-family:Helvetica;-inkscape-font-specification:Helvetica;writing-mode:lr-tb;fill:#4d4d4d;fill-opacity:1;fill-rule:nonzero;stroke:none"
         transform="matrix(1,0,0,-1,50.3305,23.2102)">
        <tspan
           id="tspan18958"
           sodipodi:role="line"
           y="0"
           x="0 7.2199998 14.44 21.110001 82.609802 89.829803 96.499802">NREMREM</tspan>
      </text>
    </g>
    <path
       inkscape:connector-curvature="0"
       id="path18962"
       style="fill:none;stroke:#000000;stroke-width:0.31346634;stroke-linecap:butt;stroke-linejoin:round;stroke-miterlimit:10;stroke-dasharray:none;stroke-opacity:1"
       d="M 52.492845,286.36414 H 88.945759" />
    <path
       inkscape:connector-curvature="0"
       id="path18964"
       style="fill:none;stroke:#333333;stroke-width:0.31346634;stroke-linecap:butt;stroke-linejoin:round;stroke-miterlimit:10;stroke-dasharray:none;stroke-opacity:1"
       d="m 59.148878,287.24003 v -0.87589" />
    <path
       inkscape:connector-curvature="0"
       id="path18966"
       style="fill:none;stroke:#333333;stroke-width:0.31346634;stroke-linecap:butt;stroke-linejoin:round;stroke-miterlimit:10;stroke-dasharray:none;stroke-opacity:1"
       d="m 82.292655,287.24003 v -0.87589" />
    <g
       transform="matrix(0.2929592,0,0,-0.2929592,1.0111252,296.84326)"
       id="g18968">
      <text
         id="text18972"
         style="font-variant:normal;font-weight:normal;font-size:10px;font-family:Helvetica;-inkscape-font-specification:Helvetica;writing-mode:lr-tb;fill:#4d4d4d;fill-opacity:1;fill-rule:nonzero;stroke:none"
         transform="matrix(1,0,0,-1,183.73,23.2102)">
        <tspan
           id="tspan18970"
           sodipodi:role="line"
           y="0"
           x="0 7.2199998 14.44 21.110001 82.609802 89.829803 96.499802">NREMREM</tspan>
      </text>
    </g>
    <path
       inkscape:connector-curvature="0"
       id="path18974"
       style="fill:none;stroke:#000000;stroke-width:0.31346634;stroke-linecap:butt;stroke-linejoin:round;stroke-miterlimit:10;stroke-dasharray:none;stroke-opacity:1"
       d="M 13.412117,262.13931 V 240.54236" />
    <g
       transform="matrix(0.2929592,0,0,-0.2929592,1.0111252,296.84326)"
       id="g18976">
      <text
         id="text18984"
         style="font-variant:normal;font-weight:normal;font-size:10px;font-family:Helvetica;-inkscape-font-specification:Helvetica;writing-mode:lr-tb;fill:#4d4d4d;fill-opacity:1;fill-rule:nonzero;stroke:none"
         transform="matrix(1,0,0,-1,23.0609,134.22)">
        <tspan
           id="tspan18978"
           sodipodi:role="line"
           y="0"
           x="0 5.5599999 8.3400002">1.2</tspan>
        <tspan
           id="tspan18980"
           sodipodi:role="line"
           y="-25.319901"
           x="0 5.5599999 8.3400002">1.3</tspan>
        <tspan
           id="tspan18982"
           sodipodi:role="line"
           y="-50.6301"
           x="0 5.5599999 8.3400002">1.4</tspan>
      </text>
    </g>
    <path
       inkscape:connector-curvature="0"
       id="path18986"
       style="fill:none;stroke:#333333;stroke-width:0.31346634;stroke-linecap:butt;stroke-linejoin:round;stroke-miterlimit:10;stroke-dasharray:none;stroke-opacity:1"
       d="m 12.53907,256.47055 h 0.873047" />
    <path
       inkscape:connector-curvature="0"
       id="path18988"
       style="fill:none;stroke:#333333;stroke-width:0.31346634;stroke-linecap:butt;stroke-linejoin:round;stroke-miterlimit:10;stroke-dasharray:none;stroke-opacity:1"
       d="m 12.53907,249.05283 h 0.873047" />
    <path
       inkscape:connector-curvature="0"
       id="path18990"
       style="fill:none;stroke:#333333;stroke-width:0.31346634;stroke-linecap:butt;stroke-linejoin:round;stroke-miterlimit:10;stroke-dasharray:none;stroke-opacity:1"
       d="m 12.53907,241.63803 h 0.873047" />
    <path
       inkscape:connector-curvature="0"
       id="path18992"
       style="fill:none;stroke:#000000;stroke-width:0.31346634;stroke-linecap:butt;stroke-linejoin:round;stroke-miterlimit:10;stroke-dasharray:none;stroke-opacity:1"
       d="M 13.412117,286.36414 V 264.76716" />
    <g
       transform="matrix(0.2929592,0,0,-0.2929592,1.0111252,296.84326)"
       id="g18994">
      <text
         id="text19002"
         style="font-variant:normal;font-weight:normal;font-size:10px;font-family:Helvetica;-inkscape-font-specification:Helvetica;writing-mode:lr-tb;fill:#4d4d4d;fill-opacity:1;fill-rule:nonzero;stroke:none"
         transform="matrix(1,0,0,-1,23.0609,51.5301)">
        <tspan
           id="tspan18996"
           sodipodi:role="line"
           y="0"
           x="0 5.5599999 8.3400002">1.2</tspan>
        <tspan
           id="tspan18998"
           sodipodi:role="line"
           y="-25.319901"
           x="0 5.5599999 8.3400002">1.3</tspan>
        <tspan
           id="tspan19000"
           sodipodi:role="line"
           y="-50.639801"
           x="0 5.5599999 8.3400002">1.4</tspan>
      </text>
    </g>
    <path
       inkscape:connector-curvature="0"
       id="path19004"
       style="fill:none;stroke:#333333;stroke-width:0.31346634;stroke-linecap:butt;stroke-linejoin:round;stroke-miterlimit:10;stroke-dasharray:none;stroke-opacity:1"
       d="m 12.53907,280.69538 h 0.873047" />
    <path
       inkscape:connector-curvature="0"
       id="path19006"
       style="fill:none;stroke:#333333;stroke-width:0.31346634;stroke-linecap:butt;stroke-linejoin:round;stroke-miterlimit:10;stroke-dasharray:none;stroke-opacity:1"
       d="m 12.53907,273.27768 h 0.873047" />
    <path
       inkscape:connector-curvature="0"
       id="path19008"
       style="fill:none;stroke:#333333;stroke-width:0.31346634;stroke-linecap:butt;stroke-linejoin:round;stroke-miterlimit:10;stroke-dasharray:none;stroke-opacity:1"
       d="m 12.53907,265.8599 h 0.873047" />
    <path
       inkscape:connector-curvature="0"
       id="path19010"
       style="fill:none;stroke:#000000;stroke-width:0.31346634;stroke-linecap:butt;stroke-linejoin:round;stroke-miterlimit:10;stroke-dasharray:none;stroke-opacity:1"
       d="M 52.492845,286.36414 V 264.76716" />
    <path
       inkscape:connector-curvature="0"
       id="path19012"
       style="fill:none;stroke:#333333;stroke-width:0.31346634;stroke-linecap:butt;stroke-linejoin:round;stroke-miterlimit:10;stroke-dasharray:none;stroke-opacity:1"
       d="m 51.616897,280.69538 h 0.875948" />
    <path
       inkscape:connector-curvature="0"
       id="path19014"
       style="fill:none;stroke:#333333;stroke-width:0.31346634;stroke-linecap:butt;stroke-linejoin:round;stroke-miterlimit:10;stroke-dasharray:none;stroke-opacity:1"
       d="m 51.616897,273.27768 h 0.875948" />
    <path
       inkscape:connector-curvature="0"
       id="path19016"
       style="fill:none;stroke:#333333;stroke-width:0.31346634;stroke-linecap:butt;stroke-linejoin:round;stroke-miterlimit:10;stroke-dasharray:none;stroke-opacity:1"
       d="m 51.616897,265.8599 h 0.875948" />
    <path
       inkscape:connector-curvature="0"
       id="path19018"
       style="fill:none;stroke:#000000;stroke-width:0.31346634;stroke-linecap:butt;stroke-linejoin:round;stroke-miterlimit:10;stroke-dasharray:none;stroke-opacity:1"
       d="M 52.492845,262.13931 H 88.945759" />
    <path
       inkscape:connector-curvature="0"
       id="path19020"
       style="fill:none;stroke:#333333;stroke-width:0.31346634;stroke-linecap:butt;stroke-linejoin:round;stroke-miterlimit:10;stroke-dasharray:none;stroke-opacity:1"
       d="m 59.148878,263.01526 v -0.87595" />
    <path
       inkscape:connector-curvature="0"
       id="path19022"
       style="fill:none;stroke:#333333;stroke-width:0.31346634;stroke-linecap:butt;stroke-linejoin:round;stroke-miterlimit:10;stroke-dasharray:none;stroke-opacity:1"
       d="m 82.292655,263.01526 v -0.87595" />
    <path
       inkscape:connector-curvature="0"
       id="path19024"
       style="fill:none;stroke:#000000;stroke-width:0.31346634;stroke-linecap:butt;stroke-linejoin:round;stroke-miterlimit:10;stroke-dasharray:none;stroke-opacity:1"
       d="M 52.492845,262.13931 V 240.54236" />
    <path
       inkscape:connector-curvature="0"
       id="path19026"
       style="fill:none;stroke:#333333;stroke-width:0.31346634;stroke-linecap:butt;stroke-linejoin:round;stroke-miterlimit:10;stroke-dasharray:none;stroke-opacity:1"
       d="m 51.616897,256.47055 h 0.875948" />
    <path
       inkscape:connector-curvature="0"
       id="path19028"
       style="fill:none;stroke:#333333;stroke-width:0.31346634;stroke-linecap:butt;stroke-linejoin:round;stroke-miterlimit:10;stroke-dasharray:none;stroke-opacity:1"
       d="m 51.616897,249.05283 h 0.875948" />
    <path
       inkscape:connector-curvature="0"
       id="path19030"
       style="fill:none;stroke:#333333;stroke-width:0.31346634;stroke-linecap:butt;stroke-linejoin:round;stroke-miterlimit:10;stroke-dasharray:none;stroke-opacity:1"
       d="m 51.616897,241.63803 h 0.875948" />
    <path
       inkscape:connector-curvature="0"
       id="path19032"
       style="fill:none;stroke:#000000;stroke-width:0.31346634;stroke-linecap:butt;stroke-linejoin:round;stroke-miterlimit:10;stroke-dasharray:none;stroke-opacity:1"
       d="M 13.412117,262.13931 H 49.867931" />
    <path
       inkscape:connector-curvature="0"
       id="path19034"
       style="fill:none;stroke:#333333;stroke-width:0.31346634;stroke-linecap:butt;stroke-linejoin:round;stroke-miterlimit:10;stroke-dasharray:none;stroke-opacity:1"
       d="m 20.068121,263.01526 v -0.87595" />
    <path
       inkscape:connector-curvature="0"
       id="path19036"
       style="fill:none;stroke:#333333;stroke-width:0.31346634;stroke-linecap:butt;stroke-linejoin:round;stroke-miterlimit:10;stroke-dasharray:none;stroke-opacity:1"
       d="m 43.211898,263.01526 v -0.87595" />
    <g
       transform="matrix(0.2929592,0,0,-0.2929592,1.0111252,296.84326)"
       id="g19038">
      <text
         id="text19042"
         style="font-variant:normal;font-weight:normal;font-size:12px;font-family:Helvetica;-inkscape-font-specification:Helvetica;writing-mode:lr-tb;fill:#000000;fill-opacity:1;fill-rule:nonzero;stroke:none"
         transform="matrix(1,0,0,-1,139.564,8.61992)">
        <tspan
           id="tspan19040"
           sodipodi:role="line"
           y="0"
           x="0 8.0039997 10.668 17.34 24.011999 30.684 34.02 40.02 43.355999 50.028 56.700001">Sleep stage</tspan>
      </text>
      <text
         id="text19046"
         style="font-variant:normal;font-weight:normal;font-size:12px;font-family:Helvetica;-inkscape-font-specification:Helvetica;writing-mode:lr-tb;fill:#000000;fill-opacity:1;fill-rule:nonzero;stroke:none"
         transform="matrix(0,1,1,0,14.5898,73.2898)">
        <tspan
           id="tspan19044"
           sodipodi:role="line"
           y="0"
           x="0 8.6639996 15.336 19.332001 25.332001 28.667999 32.004002 38.316013 44.316013 50.988014 57.660015 64.332016 71.004013 77.676018">Hurst exponent</tspan>
      </text>
    </g>
    <g
       transform="matrix(0.29340572,0,0,-0.29340572,-68.357275,363.73074)"
       id="g6855">
      <g
         aria-label="Group"
         transform="matrix(1,0,0,-1,232.34,451.63)"
         style="font-variant:normal;font-weight:normal;font-size:12px;font-family:Helvetica;-inkscape-font-specification:Helvetica;writing-mode:lr-tb;fill:#000000;fill-opacity:1;fill-rule:nonzero;stroke:none"
         id="text6859">
        <path
           inkscape:connector-curvature="0"
           d="m 4.9453125,-3.3691406 v -1.0078125 l 3.6386719,-0.00586 v 3.1875 Q 7.7460937,-0.52734375 6.8554687,-0.1875 q -0.890625,0.33398437 -1.828125,0.33398437 -1.2656249,0 -2.3027343,-0.5390625 Q 1.6933594,-0.9375 1.1660156,-1.9628906 0.63867187,-2.9882813 0.63867187,-4.2539062 q 0,-1.2539063 0.52148433,-2.3378907 Q 1.6875,-7.6816406 2.671875,-8.2089844 3.65625,-8.7363281 4.9394531,-8.7363281 q 0.9316406,0 1.6816406,0.3046875 0.7558594,0.2988281 1.1835938,0.8378906 0.4277344,0.5390625 0.6503906,1.40625 L 7.4296875,-5.90625 Q 7.2363281,-6.5625 6.9492187,-6.9375 6.6621094,-7.3125 6.1289062,-7.5351562 5.5957031,-7.7636719 4.9453125,-7.7636719 q -0.7792969,0 -1.3476562,0.2402344 -0.5683594,0.234375 -0.9199219,0.6210938 -0.3457031,0.3867187 -0.5390625,0.8496093 -0.328125,0.796875 -0.328125,1.7285157 0,1.1484374 0.3925781,1.9218749 0.3984375,0.7734376 1.1542969,1.1484376 0.7558593,0.37499995 1.6054687,0.37499995 0.7382813,0 1.4414063,-0.28124995 0.703125,-0.2871094 1.0664062,-0.609375 v -1.5996094 z"
           id="path17839" />
        <path
           inkscape:connector-curvature="0"
           d="m 10.115297,0 v -6.2226562 h 0.949219 v 0.9433593 q 0.363281,-0.6621093 0.667969,-0.8730468 0.310547,-0.2109375 0.679687,-0.2109375 0.533203,0 1.083985,0.3398437 l -0.363282,0.9785156 q -0.386718,-0.2285156 -0.773437,-0.2285156 -0.345703,0 -0.621094,0.2109375 -0.27539,0.2050781 -0.392578,0.5742188 -0.175781,0.5624999 -0.175781,1.2304687 V 0 Z"
           id="path17841" />
        <path
           inkscape:connector-curvature="0"
           d="m 13.730437,-3.1113281 q 0,-1.7285156 0.960938,-2.5605469 0.802734,-0.6914062 1.957031,-0.6914062 1.283203,0 2.097656,0.84375 0.814453,0.8378906 0.814453,2.3203124 0,1.2011719 -0.363281,1.8925782 -0.357422,0.68554685 -1.048828,1.06640622 -0.685547,0.38085938 -1.5,0.38085938 -1.306641,0 -2.115234,-0.83789062 -0.802735,-0.83789058 -0.802735,-2.41406248 z m 1.083985,0 q 0,1.1953125 0.521484,1.7929687 0.521484,0.5917969 1.3125,0.5917969 0.785156,0 1.306641,-0.5976562 0.521484,-0.5976563 0.521484,-1.8222657 0,-1.1542968 -0.527344,-1.7460937 -0.521484,-0.5976563 -1.300781,-0.5976563 -0.791016,0 -1.3125,0.5917969 -0.521484,0.5917969 -0.521484,1.7871094 z"
           id="path17843" />
        <path
           inkscape:connector-curvature="0"
           d="m 24.87314,0 v -0.9140625 q -0.726562,1.0546875 -1.974609,1.0546875 -0.550781,0 -1.03125,-0.2109375 -0.474609,-0.2109375 -0.708984,-0.52734375 -0.228516,-0.32226563 -0.322266,-0.78515625 -0.06445,-0.3105469 -0.06445,-0.984375 v -3.8554687 h 1.054687 v 3.4511718 q 0,0.8261719 0.06445,1.1132813 0.09961,0.4160156 0.421875,0.65625 0.322266,0.23437498 0.796875,0.23437498 0.47461,0 0.890625,-0.24023438 0.416016,-0.2460937 0.585938,-0.6621094 0.175781,-0.421875 0.175781,-1.21875 V -6.2226562 H 25.8165 V 0 Z"
           id="path17845" />
        <path
           inkscape:connector-curvature="0"
           d="m 27.467016,2.3847656 v -8.6074218 h 0.960938 v 0.8085937 q 0.339843,-0.4746094 0.767578,-0.7089844 0.427734,-0.2402343 1.037109,-0.2402343 0.796875,0 1.40625,0.4101562 0.609375,0.4101563 0.919922,1.1601563 0.310547,0.7441406 0.310547,1.6347656 0,0.9550781 -0.345703,1.7226562 -0.339844,0.76171878 -0.996094,1.17187502 -0.650391,0.40429688 -1.371094,0.40429688 -0.527343,0 -0.949218,-0.22265625 -0.416016,-0.22265625 -0.685547,-0.5625 V 2.3847656 Z m 0.955078,-5.4609375 q 0,1.2011719 0.486328,1.7753907 0.486329,0.5742187 1.177735,0.5742187 0.703125,0 1.201172,-0.5917969 0.503906,-0.5976562 0.503906,-1.8457031 0,-1.1894531 -0.492188,-1.78125 -0.486328,-0.5917969 -1.166015,-0.5917969 -0.673828,0 -1.195313,0.6328125 -0.515625,0.6269532 -0.515625,1.828125 z"
           id="path17847" />
      </g>
    </g>
    <path
       inkscape:connector-curvature="0"
       id="path6861"
       style="fill:none;stroke:#0000ff;stroke-width:0.3139441;stroke-linecap:butt;stroke-linejoin:round;stroke-miterlimit:10;stroke-dasharray:none;stroke-opacity:1"
       d="m 11.372823,229.95828 h 4.054868" />
    <path
       inkscape:connector-curvature="0"
       id="path6863"
       style="fill:none;stroke:#0000ff;stroke-width:0.3139441;stroke-linecap:butt;stroke-linejoin:round;stroke-miterlimit:10;stroke-dasharray:none;stroke-opacity:1"
       d="m 11.372823,229.95828 h 4.054868" />
    <path
       inkscape:connector-curvature="0"
       id="path6865"
       style="fill:#0000ff;fill-opacity:1;fill-rule:nonzero;stroke:none;stroke-width:0.02934057"
       d="m 13.535225,229.95828 c 0,-0.0745 -0.06044,-0.13497 -0.134969,-0.13497 -0.07452,0 -0.134966,0.0604 -0.134966,0.13497 0,0.0745 0.06044,0.13496 0.134966,0.13496 0.07453,0 0.134969,-0.0604 0.134969,-0.13496" />
    <path
       inkscape:connector-curvature="0"
       id="path6867"
       style="fill:none;stroke:#0000ff;stroke-width:0.20831805;stroke-linecap:round;stroke-linejoin:round;stroke-miterlimit:10;stroke-dasharray:none;stroke-opacity:1"
       d="m 13.535225,229.95828 c 0,-0.0745 -0.06044,-0.13497 -0.134969,-0.13497 -0.07452,0 -0.134966,0.0604 -0.134966,0.13497 0,0.0745 0.06044,0.13496 0.134966,0.13496 0.07453,0 0.134969,-0.0604 0.134969,-0.13496" />
    <path
       inkscape:connector-curvature="0"
       id="path6869"
       style="fill:none;stroke:#ff0000;stroke-width:0.3139441;stroke-linecap:butt;stroke-linejoin:round;stroke-miterlimit:10;stroke-dasharray:none;stroke-opacity:1"
       d="m 23.25282,229.95828 h 4.054867" />
    <path
       inkscape:connector-curvature="0"
       id="path6871"
       style="fill:none;stroke:#ff0000;stroke-width:0.3139441;stroke-linecap:butt;stroke-linejoin:round;stroke-miterlimit:10;stroke-dasharray:none;stroke-opacity:1"
       d="m 23.25282,229.95828 h 4.054867" />
    <path
       inkscape:connector-curvature="0"
       id="path6873"
       style="fill:#ff0000;fill-opacity:1;fill-rule:nonzero;stroke:none;stroke-width:0.02934057"
       d="m 25.415221,229.95828 c 0,-0.0745 -0.06044,-0.13497 -0.134967,-0.13497 -0.07452,0 -0.134969,0.0604 -0.134969,0.13497 0,0.0745 0.06045,0.13496 0.134969,0.13496 0.07453,0 0.134967,-0.0604 0.134967,-0.13496" />
    <path
       inkscape:connector-curvature="0"
       id="path6875"
       style="fill:none;stroke:#ff0000;stroke-width:0.20831805;stroke-linecap:round;stroke-linejoin:round;stroke-miterlimit:10;stroke-dasharray:none;stroke-opacity:1"
       d="m 25.415221,229.95828 c 0,-0.0745 -0.06044,-0.13497 -0.134967,-0.13497 -0.07452,0 -0.134969,0.0604 -0.134969,0.13497 0,0.0745 0.06045,0.13496 0.134969,0.13496 0.07453,0 0.134967,-0.0604 0.134967,-0.13496" />
    <g
       transform="matrix(0.29340572,0,0,-0.29340572,-68.357275,363.73074)"
       id="g6877">
      <g
         aria-label="CTLMCI"
         transform="matrix(1,0,0,-1,289.45,452.34)"
         style="font-variant:normal;font-weight:normal;font-size:10px;font-family:Helvetica;-inkscape-font-specification:Helvetica;writing-mode:lr-tb;fill:#000000;fill-opacity:1;fill-rule:nonzero;stroke:none"
         id="text6881">
        <path
           inkscape:connector-curvature="0"
           d="m 5.8789062,-2.5097656 0.9472657,0.2392578 q -0.2978516,1.1669922 -1.0742188,1.78222655 -0.7714844,0.61035156 -1.8896484,0.61035156 -1.1572266,0 -1.8847656,-0.46875 Q 1.2548828,-0.8203125 0.87402344,-1.7138672 0.49804688,-2.6074219 0.49804688,-3.6328125 q 0,-1.1181641 0.42480468,-1.9482422 0.42968754,-0.8349609 1.21582034,-1.2646484 0.7910156,-0.4345703 1.7382812,-0.4345703 1.0742188,0 1.8066406,0.546875 0.7324219,0.546875 1.0205079,1.5380859 l -0.9326172,0.2197266 q -0.2490235,-0.78125 -0.7226563,-1.1376953 -0.4736328,-0.3564454 -1.1914062,-0.3564454 -0.8251953,0 -1.381836,0.3955079 -0.5517578,0.3955078 -0.7763672,1.0644531 -0.2246093,0.6640625 -0.2246093,1.3720703 0,0.9130859 0.2636718,1.5966797 0.2685547,0.6787109 0.8300782,1.015625 0.5615234,0.33691404 1.2158203,0.33691404 0.7958984,0 1.3476562,-0.45898434 0.5517578,-0.4589844 0.7470703,-1.3623047 z"
           id="path17850" />
        <path
           inkscape:connector-curvature="0"
           d="M 9.8127732,0 V -6.3134766 H 7.4543748 v -0.8447265 h 5.6738282 v 0.8447265 H 10.760039 V 0 Z"
           id="path17852" />
        <path
           inkscape:connector-curvature="0"
           d="m 14.062422,0 v -7.1582031 h 0.947265 v 6.31347654 h 3.525391 V 0 Z"
           id="path17854" />
        <path
           inkscape:connector-curvature="0"
           d="m 41.232086,0 v -7.1582031 h 1.425781 l 1.694336,5.0683593 q 0.234375,0.7080079 0.341797,1.0595704 0.122071,-0.390625 0.38086,-1.147461 l 1.713867,-4.9804687 h 1.274414 V 0 H 47.150055 V -5.9912109 L 45.069977,0 H 44.215485 L 42.145172,-6.09375 V 0 Z"
           id="path17856" />
        <path
           inkscape:connector-curvature="0"
           d="m 54.698807,-2.5097656 0.947265,0.2392578 q -0.297851,1.1669922 -1.074218,1.78222655 -0.771485,0.61035156 -1.889649,0.61035156 -1.157226,0 -1.884765,-0.46875 -0.722657,-0.47363281 -1.103516,-1.36718751 -0.375977,-0.8935547 -0.375977,-1.9189453 0,-1.1181641 0.424805,-1.9482422 0.429688,-0.8349609 1.21582,-1.2646484 0.791016,-0.4345703 1.738282,-0.4345703 1.074218,0 1.80664,0.546875 0.732422,0.546875 1.020508,1.5380859 l -0.932617,0.2197266 q -0.249024,-0.78125 -0.722656,-1.1376953 -0.473633,-0.3564454 -1.191407,-0.3564454 -0.825195,0 -1.381836,0.3955079 -0.551757,0.3955078 -0.776367,1.0644531 -0.224609,0.6640625 -0.224609,1.3720703 0,0.9130859 0.263672,1.5966797 0.268554,0.6787109 0.830078,1.015625 0.561523,0.33691404 1.21582,0.33691404 0.795899,0 1.347656,-0.45898434 0.551758,-0.4589844 0.747071,-1.3623047 z"
           id="path17858" />
        <path
           inkscape:connector-curvature="0"
           d="m 56.972519,0 v -7.1582031 h 0.947266 V 0 Z"
           id="path17860" />
      </g>
    </g>
    <g
       id="g13877"
       transform="matrix(0.29340572,0,0,-0.29340572,-28.669782,363.73074)">
      <g
         aria-label="Effects"
         transform="matrix(1,0,0,-1,232.34,451.63)"
         style="font-variant:normal;font-weight:normal;font-size:12px;font-family:Helvetica;-inkscape-font-specification:Helvetica;writing-mode:lr-tb;fill:#000000;fill-opacity:1;fill-rule:nonzero;stroke:none"
         id="text13875">
        <path
           inkscape:connector-curvature="0"
           d="M 0.94921875,0 V -8.5898438 H 7.1601562 v 1.0136719 H 2.0859375 v 2.6308594 H 6.8378906 V -3.9375 H 2.0859375 v 2.9238281 H 7.359375 V 0 Z"
           id="path19447" />
        <path
           inkscape:connector-curvature="0"
           d="M 9.0585938,0 V -5.4023437 H 8.1269531 v -0.8203125 h 0.9316407 v -0.6621094 q 0,-0.6269531 0.1113281,-0.9316406 0.1523437,-0.4101563 0.5332031,-0.6621094 0.386719,-0.2578125 1.078125,-0.2578125 0.445313,0 0.984375,0.1054687 l -0.158203,0.9199219 q -0.328125,-0.058594 -0.621094,-0.058594 -0.480469,0 -0.679687,0.2050781 -0.199219,0.2050781 -0.199219,0.7675781 v 0.5742188 h 1.212891 V -5.402344 H 10.107422 V 0 Z"
           id="path19449" />
        <path
           inkscape:connector-curvature="0"
           d="m 12.175781,0 v -5.4023437 h -0.93164 v -0.8203125 h 0.93164 v -0.6621094 q 0,-0.6269531 0.111328,-0.9316406 0.152344,-0.4101563 0.533204,-0.6621094 0.386718,-0.2578125 1.078125,-0.2578125 0.445312,0 0.984375,0.1054687 l -0.158204,0.9199219 q -0.328125,-0.058594 -0.621093,-0.058594 -0.480469,0 -0.679688,0.2050781 -0.199219,0.2050781 -0.199219,0.7675781 v 0.5742188 H 14.4375 V -5.402344 H 13.224609 V 0 Z"
           id="path19451" />
        <path
           inkscape:connector-curvature="0"
           d="m 19.511719,-2.0039063 1.089843,0.1347657 q -0.257812,0.9550781 -0.955078,1.48242185 -0.697265,0.52734375 -1.78125,0.52734375 -1.365234,0 -2.167968,-0.83789062 -0.796875,-0.84374998 -0.796875,-2.36132818 0,-1.5703124 0.808593,-2.4374999 0.808594,-0.8671875 2.097657,-0.8671875 1.248046,0 2.039062,0.8496093 0.791016,0.8496094 0.791016,2.390625 0,0.09375 -0.0059,0.28125 h -4.640625 q 0.05859,1.0253907 0.580078,1.5703125 0.521485,0.5449219 1.300782,0.5449219 0.580078,0 0.990234,-0.3046875 0.410156,-0.3046875 0.650391,-0.9726563 z m -3.462891,-1.7050781 h 3.474609 q -0.07031,-0.7851562 -0.398437,-1.1777343 -0.503906,-0.609375 -1.306641,-0.609375 -0.726562,0 -1.224609,0.4863281 -0.492188,0.4863281 -0.544922,1.3007812 z"
           id="path19453" />
        <path
           inkscape:connector-curvature="0"
           d="m 25.992187,-2.2792969 1.03711,0.1347656 Q 26.859375,-1.0722656 26.15625,-0.46289063 25.458984,0.140625 24.439453,0.140625 q -1.277344,0 -2.056641,-0.83203125 -0.773437,-0.83789065 -0.773437,-2.39648435 0,-1.0078125 0.333984,-1.7636719 0.333985,-0.7558594 1.013672,-1.1308594 0.685547,-0.3808593 1.488281,-0.3808593 1.013672,0 1.658204,0.515625 0.644531,0.5097656 0.826171,1.453125 l -1.02539,0.1582031 q -0.146485,-0.6269531 -0.521485,-0.9433594 -0.36914,-0.3164062 -0.896484,-0.3164062 -0.796875,0 -1.294922,0.5742187 -0.498047,0.5683594 -0.498047,1.8046875 0,1.2539063 0.480469,1.8222656 0.480469,0.5683594 1.253906,0.5683594 0.621094,0 1.03711,-0.3808594 0.416015,-0.3808593 0.527343,-1.171875 z"
           id="path19455" />
        <path
           inkscape:connector-curvature="0"
           d="m 30.234375,-0.94335938 0.152344,0.93164063 q -0.445313,0.09375 -0.796875,0.09375 -0.574219,0 -0.890625,-0.18164062 Q 28.382812,-0.28125 28.253906,-0.57421875 28.125,-0.87304688 28.125,-1.8222656 V -5.4023437 H 27.351562 V -6.2226562 H 28.125 v -1.5410157 l 1.048828,-0.6328125 v 2.1738282 h 1.060547 v 0.8203125 h -1.060547 v 3.6386718 q 0,0.4511719 0.05273,0.5800782 0.05859,0.1289062 0.181641,0.20507807 0.128906,0.0761719 0.363281,0.0761719 0.175782,0 0.462891,-0.0410156 z"
           id="path19457" />
        <path
           inkscape:connector-curvature="0"
           d="m 30.837891,-1.8574219 1.042968,-0.1640625 q 0.08789,0.6269532 0.486328,0.9609375 0.404297,0.3339844 1.125,0.3339844 0.726563,0 1.078125,-0.2929687 0.351563,-0.2988282 0.351563,-0.6972657 0,-0.3574219 -0.310547,-0.5625 -0.216797,-0.140625 -1.078125,-0.3574219 -1.160156,-0.2929687 -1.611328,-0.5039062 -0.445313,-0.2167969 -0.679688,-0.5917969 -0.228515,-0.3808593 -0.228515,-0.8378906 0,-0.4160156 0.1875,-0.7675781 0.193359,-0.3574219 0.521484,-0.5917969 0.246094,-0.1816406 0.667969,-0.3046875 0.427734,-0.1289062 0.914062,-0.1289062 0.732422,0 1.283204,0.2109375 0.55664,0.2109375 0.820312,0.5742187 0.263672,0.3574219 0.363281,0.9609375 l -1.03125,0.140625 q -0.07031,-0.4804687 -0.410156,-0.75 -0.333984,-0.2695312 -0.949219,-0.2695312 -0.726562,0 -1.037109,0.2402343 -0.310547,0.2402344 -0.310547,0.5625 0,0.2050782 0.128906,0.3691407 0.128907,0.1699218 0.404297,0.28125 0.158203,0.058594 0.931641,0.2695312 1.11914,0.2988281 1.558594,0.4921875 0.445312,0.1875 0.697265,0.5507812 0.251953,0.3632813 0.251953,0.9023438 0,0.5273438 -0.310547,0.99609375 -0.304687,0.46289062 -0.884765,0.72070313 -0.580078,0.25195312 -1.3125,0.25195312 -1.212891,0 -1.851563,-0.50390625 -0.632812,-0.50390625 -0.808593,-1.49414065 z"
           id="path19459" />
      </g>
    </g>
    <g
       id="g13899"
       transform="matrix(0.29340572,0,0,-0.29340572,-30.257282,363.73074)">
      <g
         aria-label="Group      Stage      Group x Stage"
         transform="matrix(1,0,0,-1,289.45,452.34)"
         style="font-variant:normal;font-weight:normal;font-size:10px;font-family:Helvetica;-inkscape-font-specification:Helvetica;writing-mode:lr-tb;fill:#000000;fill-opacity:1;fill-rule:nonzero;stroke:none"
         id="text13897">
        <path
           inkscape:connector-curvature="0"
           d="m 4.1210937,-2.8076172 v -0.8398437 l 3.0322266,-0.00488 v 2.65625005 Q 6.4550781,-0.43945313 5.7128906,-0.15625 4.9707031,0.12207031 4.1894531,0.12207031 q -1.0546875,0 -1.9189453,-0.44921875 Q 1.4111328,-0.78125 0.97167969,-1.6357422 0.53222656,-2.4902344 0.53222656,-3.5449219 q 0,-1.0449218 0.43457032,-1.9482422 Q 1.40625,-6.4013672 2.2265625,-6.8408203 3.046875,-7.2802734 4.1162109,-7.2802734 q 0.7763672,0 1.4013672,0.2539062 0.6298828,0.2490235 0.9863281,0.6982422 0.3564454,0.4492188 0.5419922,1.171875 L 6.1914062,-4.921875 Q 6.0302734,-5.46875 5.7910156,-5.78125 5.5517578,-6.09375 5.1074219,-6.2792969 4.6630859,-6.4697266 4.1210937,-6.4697266 q -0.649414,0 -1.1230468,0.2001954 -0.4736328,0.1953125 -0.7666016,0.5175781 -0.2880859,0.3222656 -0.4492187,0.7080078 -0.2734375,0.6640625 -0.2734375,1.4404297 0,0.9570312 0.3271484,1.6015625 0.3320313,0.6445312 0.9619141,0.9570312 0.6298828,0.31250003 1.3378906,0.31250003 0.6152344,0 1.2011719,-0.23437501 0.5859375,-0.23925782 0.8886718,-0.50781252 v -1.3330078 z"
           id="path19404" />
        <path
           inkscape:connector-curvature="0"
           d="m 8.4228516,0 v -5.1855469 h 0.7910156 v 0.7861328 q 0.3027344,-0.5517578 0.5566406,-0.727539 0.2587892,-0.1757813 0.5664062,-0.1757813 0.444336,0 0.90332,0.2832032 L 10.9375,-4.2041016 q -0.322266,-0.1904296 -0.644531,-0.1904296 -0.288086,0 -0.5175784,0.1757812 -0.2294922,0.1708984 -0.3271484,0.4785156 -0.1464844,0.46875 -0.1464844,1.0253906 V 0 Z"
           id="path19406" />
        <path
           inkscape:connector-curvature="0"
           d="m 11.445313,-2.5927734 q 0,-1.4404297 0.800781,-2.1337891 0.668945,-0.5761719 1.630859,-0.5761719 1.069336,0 1.748047,0.703125 0.678711,0.6982422 0.678711,1.9335938 0,1.0009765 -0.302734,1.5771484 -0.297852,0.57128908 -0.874024,0.88867189 -0.571289,0.31738281 -1.25,0.31738281 -1.088867,0 -1.762695,-0.69824219 -0.668945,-0.69824221 -0.668945,-2.01171871 z m 0.90332,0 q 0,0.9960937 0.43457,1.4941406 0.43457,0.49316405 1.09375,0.49316405 0.654297,0 1.088867,-0.49804685 0.434571,-0.4980469 0.434571,-1.5185547 0,-0.9619141 -0.439453,-1.4550781 -0.434571,-0.4980469 -1.083985,-0.4980469 -0.65918,0 -1.09375,0.4931641 -0.43457,0.493164 -0.43457,1.4892578 z"
           id="path19408" />
        <path
           inkscape:connector-curvature="0"
           d="m 20.737305,0 v -0.76171875 q -0.605469,0.87890625 -1.645508,0.87890625 -0.458985,0 -0.859375,-0.17578125 -0.395508,-0.17578125 -0.59082,-0.43945313 -0.19043,-0.26855468 -0.268555,-0.65429682 -0.05371,-0.2587891 -0.05371,-0.8203125 v -3.2128907 h 0.878906 v 2.8759766 q 0,0.6884766 0.05371,0.9277344 0.08301,0.3466797 0.351563,0.54687496 0.268554,0.1953125 0.664062,0.1953125 0.395508,0 0.742188,-0.20019531 0.346679,-0.20507815 0.488281,-0.55175785 0.146484,-0.3515625 0.146484,-1.015625 v -2.7783203 h 0.878906 V 0 Z"
           id="path19410" />
        <path
           inkscape:connector-curvature="0"
           d="m 22.905273,1.9873047 v -7.1728516 h 0.800782 v 0.6738282 q 0.283203,-0.3955079 0.639648,-0.5908204 0.356445,-0.2001953 0.864258,-0.2001953 0.664062,0 1.171875,0.3417969 0.507812,0.3417969 0.766601,0.9667969 0.25879,0.6201172 0.25879,1.3623047 0,0.7958984 -0.288086,1.4355468 -0.283204,0.63476566 -0.830079,0.97656254 -0.541992,0.33691406 -1.142578,0.33691406 -0.439453,0 -0.791015,-0.18554687 -0.34668,-0.18554688 -0.571289,-0.46875 V 1.9873047 Z m 0.795899,-4.5507813 q 0,1.0009766 0.405273,1.4794922 0.405274,0.47851565 0.981446,0.47851565 0.585937,0 1.000976,-0.49316405 0.419922,-0.4980469 0.419922,-1.538086 0,-0.9912109 -0.410156,-1.4843749 -0.405274,-0.4931641 -0.97168,-0.4931641 -0.561523,0 -0.996094,0.5273437 -0.429687,0.522461 -0.429687,1.5234375 z"
           id="path19412" />
        <path
           inkscape:connector-curvature="0"
           d="m 44.902344,-2.2998047 0.893554,-0.078125 q 0.06348,0.5371094 0.292969,0.8837891 0.234375,0.3417969 0.722656,0.5566406 0.488282,0.20996094 1.098633,0.20996094 0.541992,0 0.957031,-0.16113282 0.41504,-0.16113282 0.615235,-0.43945312 0.205078,-0.2832031 0.205078,-0.6152344 0,-0.336914 -0.195313,-0.5859375 Q 49.296875,-2.7832031 48.847656,-2.9541016 48.55957,-3.0664063 47.573242,-3.3007813 46.586914,-3.5400391 46.191406,-3.75 q -0.512695,-0.2685547 -0.766601,-0.6640625 -0.249024,-0.4003906 -0.249024,-0.8935547 0,-0.5419922 0.307617,-1.0107422 0.307618,-0.4736328 0.898438,-0.7177734 0.59082,-0.2441406 1.313476,-0.2441406 0.795899,0 1.401368,0.258789 0.610351,0.2539063 0.9375,0.7519532 0.327148,0.4980468 0.351562,1.1279296 l -0.908203,0.068359 q -0.07324,-0.6787109 -0.498047,-1.0253906 -0.419922,-0.3466797 -1.245117,-0.3466797 -0.859375,0 -1.254883,0.3173828 -0.390625,0.3125 -0.390625,0.756836 0,0.3857421 0.27832,0.6347656 0.273438,0.2490234 1.425782,0.5126953 1.157226,0.258789 1.586914,0.4541015 0.625,0.288086 0.922851,0.7324219 0.297852,0.4394531 0.297852,1.015625 0,0.5712891 -0.327149,1.07910159 -0.327148,0.50292968 -0.942382,0.78613281 -0.610352,0.27832031 -1.376953,0.27832031 -0.97168,0 -1.63086,-0.28320312 -0.654297,-0.28320313 -1.030273,-0.84960939 -0.371094,-0.571289 -0.390625,-1.2890621 z"
           id="path19414" />
        <path
           inkscape:connector-curvature="0"
           d="m 53.710937,-0.78613281 0.126954,0.77636718 q -0.371094,0.078125 -0.664063,0.078125 -0.478516,0 -0.742187,-0.15136718 Q 52.167969,-0.234375 52.060547,-0.47851563 51.953125,-0.72753906 51.953125,-1.5185547 v -2.9833984 h -0.644531 v -0.6835938 h 0.644531 v -1.2841797 l 0.874023,-0.5273437 v 1.8115234 h 0.883789 v 0.6835938 h -0.883789 v 3.0322265 q 0,0.3759766 0.04395,0.48339847 0.04883,0.10742188 0.151367,0.17089844 0.107422,0.0634766 0.302734,0.0634766 0.146485,0 0.385742,-0.0341797 z"
           id="path19416" />
        <path
           inkscape:connector-curvature="0"
           d="m 57.949219,-0.63964844 q -0.488282,0.41503906 -0.942383,0.5859375 -0.449219,0.17089844 -0.966797,0.17089844 -0.854492,0 -1.313477,-0.41503906 -0.458984,-0.41992188 -0.458984,-1.06933594 0,-0.3808594 0.170899,-0.6933594 0.175781,-0.3173828 0.454101,-0.5078125 0.283203,-0.1904297 0.634766,-0.2880859 0.258789,-0.068359 0.78125,-0.131836 1.064453,-0.1269531 1.567383,-0.3027343 0.0049,-0.1806641 0.0049,-0.2294922 0,-0.5371094 -0.249023,-0.7568359 -0.336914,-0.2978516 -1.000977,-0.2978516 -0.620117,0 -0.917968,0.2197266 -0.292969,0.2148437 -0.434571,0.7666015 l -0.859375,-0.1171875 q 0.117188,-0.5517578 0.385742,-0.8886719 0.268555,-0.3417968 0.776368,-0.5224609 0.507812,-0.1855469 1.176757,-0.1855469 0.664063,0 1.079102,0.15625 0.415039,0.15625 0.610352,0.3955078 0.195312,0.234375 0.273437,0.5957032 0.04395,0.2246093 0.04395,0.8105468 v 1.171875 q 0,1.22558597 0.05371,1.55273441 Q 58.876953,-0.29785156 59.042969,0 H 58.125 q -0.136719,-0.2734375 -0.175781,-0.63964844 z m -0.07324,-1.96289066 q -0.478516,0.1953125 -1.435547,0.3320313 -0.541993,0.078125 -0.766602,0.1757812 -0.224609,0.097656 -0.34668,0.288086 -0.12207,0.1855469 -0.12207,0.415039 0,0.3515625 0.263672,0.58593754 0.268555,0.234375 0.78125,0.234375 0.507812,0 0.90332,-0.21972656 0.395508,-0.22460938 0.581055,-0.61035158 0.141602,-0.2978515 0.141602,-0.8789062 z"
           id="path19418" />
        <path
           inkscape:connector-curvature="0"
           d="m 59.970703,0.4296875 0.854492,0.12695312 q 0.05371,0.39550782 0.297852,0.57617188 0.327148,0.2441406 0.893555,0.2441406 0.610351,0 0.942382,-0.2441406 0.332032,-0.24414062 0.449219,-0.68359375 0.06836,-0.26855469 0.06348,-1.12792969 Q 62.895508,0 62.036133,0 60.966797,0 60.380859,-0.77148437 59.794922,-1.5429687 59.794922,-2.6220703 q 0,-0.7421875 0.268555,-1.3671875 0.268554,-0.6298828 0.776367,-0.9716797 0.512695,-0.3417969 1.201172,-0.3417969 0.917968,0 1.513671,0.7421875 v -0.625 h 0.810547 v 4.4824219 q 0,1.2109375 -0.249023,1.7138672 -0.244141,0.5078125 -0.78125,0.8007812 -0.532227,0.2929688 -1.313477,0.2929688 -0.927734,0 -1.499023,-0.4199219 -0.571289,-0.4150391 -0.551758,-1.2548828 z m 0.727539,-3.1152344 q 0,1.0205078 0.405274,1.4892578 0.405273,0.46875004 1.015625,0.46875004 0.605468,0 1.015625,-0.46386714 0.410156,-0.46875 0.410156,-1.4648438 0,-0.9521484 -0.424805,-1.4355469 -0.419922,-0.4833984 -1.015625,-0.4833984 -0.585937,0 -0.996094,0.4785156 -0.410156,0.4736328 -0.410156,1.4111328 z"
           id="path19420" />
        <path
           inkscape:connector-curvature="0"
           d="m 69.248047,-1.6699219 0.908203,0.1123047 q -0.214844,0.79589845 -0.795898,1.23535157 -0.581055,0.43945313 -1.484375,0.43945313 -1.137696,0 -1.806641,-0.69824219 -0.664063,-0.70312501 -0.664063,-1.96777341 0,-1.3085938 0.673829,-2.03125 0.673828,-0.7226563 1.748046,-0.7226563 1.040039,0 1.699219,0.7080078 0.65918,0.7080078 0.65918,1.9921875 0,0.078125 -0.0049,0.234375 H 66.31346 q 0.04883,0.8544922 0.483398,1.3085938 0.43457,0.45410155 1.083984,0.45410155 0.483399,0 0.825196,-0.25390625 0.341797,-0.2539062 0.541992,-0.8105469 z m -2.885742,-1.4208984 h 2.895507 q -0.05859,-0.6542969 -0.332031,-0.9814453 -0.419922,-0.5078125 -1.088867,-0.5078125 -0.605469,0 -1.020508,0.4052734 -0.410156,0.4052734 -0.454101,1.0839844 z"
           id="path19422" />
        <path
           inkscape:connector-curvature="0"
           d="m 91.367187,-2.8076172 v -0.8398437 l 3.032227,-0.00488 v 2.65625005 q -0.698242,0.55664062 -1.44043,0.83984375 -0.742187,0.27832031 -1.523437,0.27832031 -1.054688,0 -1.918945,-0.44921875 Q 88.657227,-0.78125 88.217773,-1.6357422 87.77832,-2.4902344 87.77832,-3.5449219 q 0,-1.0449218 0.434571,-1.9482422 0.439453,-0.9082031 1.259765,-1.3476562 0.820313,-0.4394531 1.889649,-0.4394531 0.776367,0 1.401367,0.2539062 0.629883,0.2490235 0.986328,0.6982422 0.356445,0.4492188 0.541992,1.171875 L 93.4375,-4.921875 q -0.161133,-0.546875 -0.400391,-0.859375 -0.239257,-0.3125 -0.683593,-0.4980469 -0.444336,-0.1904297 -0.986329,-0.1904297 -0.649414,0 -1.123046,0.2001954 -0.473633,0.1953125 -0.766602,0.5175781 -0.288086,0.3222656 -0.449219,0.7080078 -0.273437,0.6640625 -0.273437,1.4404297 0,0.9570312 0.327148,1.6015625 0.332031,0.6445312 0.961914,0.9570312 0.629883,0.31250003 1.337891,0.31250003 0.615234,0 1.201172,-0.23437501 0.585937,-0.23925782 0.888672,-0.50781252 v -1.3330078 z"
           id="path19424" />
        <path
           inkscape:connector-curvature="0"
           d="m 95.668945,0 v -5.1855469 h 0.791016 v 0.7861328 q 0.302734,-0.5517578 0.556641,-0.727539 0.258789,-0.1757813 0.566406,-0.1757813 0.444336,0 0.90332,0.2832032 l -0.302734,0.8154296 q -0.322266,-0.1904296 -0.644532,-0.1904296 -0.288085,0 -0.517578,0.1757812 -0.229492,0.1708984 -0.327148,0.4785156 -0.146484,0.46875 -0.146484,1.0253906 V 0 Z"
           id="path19426" />
        <path
           inkscape:connector-curvature="0"
           d="m 98.691406,-2.5927734 q 0,-1.4404297 0.800781,-2.1337891 0.668943,-0.5761719 1.630863,-0.5761719 1.06933,0 1.74804,0.703125 0.67871,0.6982422 0.67871,1.9335938 0,1.0009765 -0.30273,1.5771484 -0.29785,0.57128908 -0.87402,0.88867189 -0.57129,0.31738281 -1.25,0.31738281 -1.08887,0 -1.762698,-0.69824219 -0.668946,-0.69824221 -0.668946,-2.01171871 z m 0.903321,0 q 0,0.9960937 0.434573,1.4941406 0.43457,0.49316405 1.09375,0.49316405 0.65429,0 1.08886,-0.49804685 0.43457,-0.4980469 0.43457,-1.5185547 0,-0.9619141 -0.43945,-1.4550781 -0.43457,-0.4980469 -1.08398,-0.4980469 -0.65918,0 -1.09375,0.4931641 -0.434573,0.493164 -0.434573,1.4892578 z"
           id="path19428" />
        <path
           inkscape:connector-curvature="0"
           d="m 107.9834,0 v -0.76171875 q -0.60547,0.87890625 -1.64551,0.87890625 -0.45898,0 -0.85937,-0.17578125 -0.39551,-0.17578125 -0.59082,-0.43945313 -0.19043,-0.26855468 -0.26856,-0.65429682 -0.0537,-0.2587891 -0.0537,-0.8203125 v -3.2128907 h 0.87891 v 2.8759766 q 0,0.6884766 0.0537,0.9277344 0.083,0.3466797 0.35156,0.54687496 0.26855,0.1953125 0.66406,0.1953125 0.39551,0 0.74219,-0.20019531 0.34668,-0.20507815 0.48828,-0.55175785 0.14649,-0.3515625 0.14649,-1.015625 v -2.7783203 h 0.8789 V 0 Z"
           id="path19430" />
        <path
           inkscape:connector-curvature="0"
           d="m 110.15137,1.9873047 v -7.1728516 h 0.80078 v 0.6738282 q 0.2832,-0.3955079 0.63965,-0.5908204 0.35644,-0.2001953 0.86425,-0.2001953 0.66407,0 1.17188,0.3417969 0.50781,0.3417969 0.7666,0.9667969 0.25879,0.6201172 0.25879,1.3623047 0,0.7958984 -0.28809,1.4355468 -0.2832,0.63476566 -0.83007,0.97656254 -0.542,0.33691406 -1.14258,0.33691406 -0.43945,0 -0.79102,-0.18554687 -0.34668,-0.18554688 -0.57129,-0.46875 V 1.9873047 Z m 0.7959,-4.5507813 q 0,1.0009766 0.40527,1.4794922 0.40527,0.47851565 0.98144,0.47851565 0.58594,0 1.00098,-0.49316405 0.41992,-0.4980469 0.41992,-1.538086 0,-0.9912109 -0.41015,-1.4843749 -0.40528,-0.4931641 -0.97168,-0.4931641 -0.56153,0 -0.9961,0.5273437 -0.42968,0.522461 -0.42968,1.5234375 z"
           id="path19432" />
        <path
           inkscape:connector-curvature="0"
           d="m 117.90527,0 1.89453,-2.6953125 -1.75292,-2.4902344 h 1.09863 l 0.7959,1.2158203 q 0.22461,0.3466797 0.36132,0.5810547 0.21485,-0.3222656 0.39551,-0.571289 l 0.87403,-1.225586 h 1.0498 L 120.83008,-2.7441406 122.75879,0 h -1.0791 l -1.06446,-1.6113281 -0.2832,-0.4345703 L 118.96973,0 Z"
           id="path19434" />
        <path
           inkscape:connector-curvature="0"
           d="m 126.05469,-2.2998047 0.89355,-0.078125 q 0.0635,0.5371094 0.29297,0.8837891 0.23438,0.3417969 0.72266,0.5566406 0.48828,0.20996094 1.09863,0.20996094 0.54199,0 0.95703,-0.16113282 0.41504,-0.16113282 0.61524,-0.43945312 0.20507,-0.2832031 0.20507,-0.6152344 0,-0.336914 -0.19531,-0.5859375 Q 130.44922,-2.7832031 130,-2.9541016 129.71191,-3.0664063 128.72559,-3.3007813 127.73926,-3.5400391 127.34375,-3.75 q -0.5127,-0.2685547 -0.7666,-0.6640625 -0.24902,-0.4003906 -0.24902,-0.8935547 0,-0.5419922 0.30761,-1.0107422 0.30762,-0.4736328 0.89844,-0.7177734 0.59082,-0.2441406 1.31348,-0.2441406 0.79589,0 1.40136,0.258789 0.61035,0.2539063 0.9375,0.7519532 0.32715,0.4980468 0.35157,1.1279296 l -0.90821,0.068359 q -0.0732,-0.6787109 -0.49804,-1.0253906 -0.41993,-0.3466797 -1.24512,-0.3466797 -0.85938,0 -1.25488,0.3173828 -0.39063,0.3125 -0.39063,0.756836 0,0.3857421 0.27832,0.6347656 0.27344,0.2490234 1.42578,0.5126953 1.15723,0.258789 1.58692,0.4541015 0.625,0.288086 0.92285,0.7324219 0.29785,0.4394531 0.29785,1.015625 0,0.5712891 -0.32715,1.07910159 -0.32715,0.50292968 -0.94238,0.78613281 -0.61035,0.27832031 -1.37695,0.27832031 -0.97168,0 -1.63086,-0.28320312 -0.6543,-0.28320313 -1.03028,-0.84960939 -0.37109,-0.571289 -0.39062,-1.2890621 z"
           id="path19436" />
        <path
           inkscape:connector-curvature="0"
           d="m 134.86328,-0.78613281 0.12695,0.77636718 q -0.37109,0.078125 -0.66406,0.078125 -0.47851,0 -0.74219,-0.15136718 -0.26367,-0.15136719 -0.37109,-0.39550782 -0.10742,-0.24902343 -0.10742,-1.04003907 v -2.9833984 h -0.64453 v -0.6835938 h 0.64453 v -1.2841797 l 0.87402,-0.5273437 v 1.8115234 h 0.88379 v 0.6835938 h -0.88379 v 3.0322265 q 0,0.3759766 0.0439,0.48339847 0.0488,0.10742188 0.15136,0.17089844 0.10743,0.0634766 0.30274,0.0634766 0.14648,0 0.38574,-0.0341797 z"
           id="path19438" />
        <path
           inkscape:connector-curvature="0"
           d="m 139.10156,-0.63964844 q -0.48828,0.41503906 -0.94238,0.5859375 -0.44922,0.17089844 -0.9668,0.17089844 -0.85449,0 -1.31347,-0.41503906 -0.45899,-0.41992188 -0.45899,-1.06933594 0,-0.3808594 0.1709,-0.6933594 0.17578,-0.3173828 0.4541,-0.5078125 0.2832,-0.1904297 0.63477,-0.2880859 0.25879,-0.068359 0.78125,-0.131836 1.06445,-0.1269531 1.56738,-0.3027343 0.005,-0.1806641 0.005,-0.2294922 0,-0.5371094 -0.24902,-0.7568359 -0.33691,-0.2978516 -1.00098,-0.2978516 -0.62011,0 -0.91797,0.2197266 -0.29296,0.2148437 -0.43457,0.7666015 l -0.85937,-0.1171875 q 0.11719,-0.5517578 0.38574,-0.8886719 0.26856,-0.3417968 0.77637,-0.5224609 0.50781,-0.1855469 1.17676,-0.1855469 0.66406,0 1.0791,0.15625 0.41504,0.15625 0.61035,0.3955078 0.19531,0.234375 0.27344,0.5957032 0.0439,0.2246093 0.0439,0.8105468 v 1.171875 q 0,1.22558597 0.0537,1.55273441 Q 140.0293,-0.29785156 140.19531,0 h -0.91797 q -0.13672,-0.2734375 -0.17578,-0.63964844 z m -0.0732,-1.96289066 q -0.47852,0.1953125 -1.43555,0.3320313 -0.54199,0.078125 -0.7666,0.1757812 -0.22461,0.097656 -0.34668,0.288086 -0.12207,0.1855469 -0.12207,0.415039 0,0.3515625 0.26367,0.58593754 0.26856,0.234375 0.78125,0.234375 0.50782,0 0.90332,-0.21972656 0.39551,-0.22460938 0.58106,-0.61035158 0.1416,-0.2978515 0.1416,-0.8789062 z"
           id="path19440" />
        <path
           inkscape:connector-curvature="0"
           d="m 141.12305,0.4296875 0.85449,0.12695312 q 0.0537,0.39550782 0.29785,0.57617188 0.32715,0.2441406 0.89356,0.2441406 0.61035,0 0.94238,-0.2441406 0.33203,-0.24414062 0.44922,-0.68359375 0.0684,-0.26855469 0.0635,-1.12792969 Q 144.04785,0 143.18848,0 q -1.06934,0 -1.65528,-0.77148437 -0.58593,-0.77148433 -0.58593,-1.85058593 0,-0.7421875 0.26855,-1.3671875 0.26855,-0.6298828 0.77637,-0.9716797 0.51269,-0.3417969 1.20117,-0.3417969 0.91797,0 1.51367,0.7421875 v -0.625 h 0.81055 v 4.4824219 q 0,1.2109375 -0.24903,1.7138672 -0.24414,0.5078125 -0.78125,0.8007812 -0.53222,0.2929688 -1.31347,0.2929688 -0.92774,0 -1.49903,-0.4199219 -0.57128,-0.4150391 -0.55175,-1.2548828 z m 0.72754,-3.1152344 q 0,1.0205078 0.40527,1.4892578 0.40527,0.46875004 1.01562,0.46875004 0.60547,0 1.01563,-0.46386714 0.41016,-0.46875 0.41016,-1.4648438 0,-0.9521484 -0.42481,-1.4355469 -0.41992,-0.4833984 -1.01562,-0.4833984 -0.58594,0 -0.9961,0.4785156 -0.41015,0.4736328 -0.41015,1.4111328 z"
           id="path19442" />
        <path
           inkscape:connector-curvature="0"
           d="m 150.40039,-1.6699219 0.9082,0.1123047 q -0.21484,0.79589845 -0.79589,1.23535157 -0.58106,0.43945313 -1.48438,0.43945313 -1.1377,0 -1.80664,-0.69824219 -0.66406,-0.70312501 -0.66406,-1.96777341 0,-1.3085938 0.67383,-2.03125 0.67382,-0.7226563 1.74804,-0.7226563 1.04004,0 1.69922,0.7080078 0.65918,0.7080078 0.65918,1.9921875 0,0.078125 -0.005,0.234375 h -3.86719 q 0.0488,0.8544922 0.4834,1.3085938 0.43457,0.45410155 1.08398,0.45410155 0.4834,0 0.8252,-0.25390625 0.3418,-0.2539062 0.54199,-0.8105469 z m -2.88574,-1.4208984 h 2.89551 q -0.0586,-0.6542969 -0.33204,-0.9814453 -0.41992,-0.5078125 -1.08886,-0.5078125 -0.60547,0 -1.02051,0.4052734 -0.41016,0.4052734 -0.4541,1.0839844 z"
           id="path19444" />
      </g>
    </g>
    <g
       transform="matrix(0.26458334,0,0,0.26458334,-35.176751,230.8905)"
       aria-label="*"
       style="font-style:normal;font-weight:normal;font-size:13.33333302px;line-height:1;font-family:sans-serif;letter-spacing:0px;word-spacing:0px;display:inline;fill:#000000;fill-opacity:1;stroke:none;stroke-width:1"
       id="text8038">
      <path
         inkscape:connector-curvature="0"
         d="m 432.56653,-1.760818 -0.5,0.859375 -2.82813,-1.6640625 0.0469,2.8125 h -1.00781 l 0.0391,-2.8125 -2.82031,1.671875 -0.50782,-0.859375 2.97657,-1.6171875 -2.97657,-1.6171875 0.50782,-0.859375 2.82812,1.6640625 -0.0469,-2.8046875 h 1.00781 l -0.0547,2.8046875 2.83594,-1.65625 0.5,0.859375 -2.96875,1.6015625 z"
         style="font-size:16px;line-height:100%;fill:#008000;stroke-width:1"
         id="path19401" />
    </g>
    <g
       transform="matrix(0.26458334,0,0,0.26458334,-35.176751,230.8905)"
       aria-label="o"
       style="font-style:normal;font-weight:normal;font-size:13.33333302px;line-height:1;font-family:sans-serif;letter-spacing:0px;word-spacing:0px;display:inline;fill:#000000;fill-opacity:1;stroke:none;stroke-width:1"
       id="text13907">
      <path
         inkscape:connector-curvature="0"
         d="m 385.32993,-4.4321354 q 0,1.7773437 -0.91146,2.8059895 -0.91146,1.02864585 -2.44141,1.02864585 -1.54297,0 -2.45443,-1.02864585 -0.90494,-1.0286458 -0.90494,-2.8059895 0,-1.7773437 0.90494,-2.8059895 0.91146,-1.0351562 2.45443,-1.0351562 1.52995,0 2.44141,1.0351562 0.91146,1.0286458 0.91146,2.8059895 z m -1.26303,0 q 0,-1.4127604 -0.55338,-2.0963541 -0.55339,-0.6901041 -1.53646,-0.6901041 -0.99609,0 -1.54948,0.6901041 -0.54687,0.6835937 -0.54687,2.0963541 0,1.3671875 0.55338,2.0768229 0.55339,0.703125 1.54297,0.703125 0.97656,0 1.52995,-0.6966146 0.55989,-0.703125 0.55989,-2.0833333 z"
         style="font-size:13.33333302px;line-height:0px;fill:#008000;stroke-width:1"
         id="path19398" />
    </g>
    <g
       transform="matrix(0.26458334,0,0,0.26458334,-35.176751,230.8905)"
       aria-label="+"
       style="font-style:normal;font-weight:normal;font-size:13.33333302px;line-height:1;font-family:sans-serif;letter-spacing:0px;word-spacing:0px;display:inline;fill:#000000;fill-opacity:1;stroke:none;stroke-width:1"
       id="text13915">
      <path
         inkscape:connector-curvature="0"
         d="m 335.74752,-3.1970187 h -3.54818 v 3.54817697 h -1.08073 V -3.1970187 h -3.54818 v -1.0416667 h 3.54818 v -3.548177 h 1.08073 v 3.548177 h 3.54818 z"
         style="font-size:13.33333302px;line-height:0px;fill:#008000;stroke-width:1"
         id="path19395" />
    </g>
    <text
       id="text8078"
       y="247.56636"
       x="71.354042"
       style="font-style:normal;font-weight:normal;font-size:3.52777767px;line-height:1;font-family:sans-serif;letter-spacing:0px;word-spacing:0px;display:inline;fill:#000000;fill-opacity:1;stroke:none;stroke-width:0.26458335"
       xml:space="preserve"><tspan
         id="tspan8076"
         style="font-style:normal;font-variant:normal;font-weight:bold;font-stretch:normal;font-size:4.23333359px;line-height:100%;font-family:sans-serif;-inkscape-font-specification:'sans-serif Bold';fill:#008000;stroke-width:0.26458335"
         y="247.56636"
         x="71.354042"
         sodipodi:role="line">*</tspan></text>
  </g>
</svg>
